<svg xmlns="http://www.w3.org/2000/svg" viewBox="0 0 1200 679" width="1200" height="679" role="img" aria-label="The Atrium lattice at ten times magnification, drawn as a halftone dot screen: thousands of small marks, each one a real commit, file change or test run">
  <style>
    svg { color: #f6eaec; --ground: #0d1117; }
    .ground { fill: var(--ground); }
    @media (prefers-color-scheme: light) {
      svg { color: #080302; --ground: #ffffff; }
    }
  </style>
  <rect class="ground" width="100%" height="100%"/>
  <path d="M485 28h.01M522 28h.01M531 28h.01M595 28h.01M650 28h.01M870 28h.01M889 28h.01M1163 28h.01M0 37h.01M9 37h.01M18 37h.01M27 37h.01M37 37h.01M46 37h.01M449 37h.01M458 37h.01M467 37h.01M522 37h.01M614 37h.01M696 37h.01M733 37h.01M769 37h.01M806 37h.01M953 37h.01M962 37h.01M971 37h.01M980 37h.01M998 37h.01M1017 37h.01M1063 37h.01M1108 37h.01M1118 37h.01M1136 37h.01M1154 37h.01M1163 37h.01M1182 37h.01M1200 37h.01M440 46h.01M513 46h.01M568 46h.01M586 46h.01M696 46h.01M769 46h.01M870 46h.01M889 46h.01M421 55h.01M440 55h.01M531 55h.01M568 55h.01M586 55h.01M733 55h.01M870 55h.01M980 55h.01M1017 55h.01M1063 55h.01M1163 55h.01M0 65h.01M9 65h.01M18 65h.01M27 65h.01M37 65h.01M46 65h.01M421 65h.01M431 65h.01M440 65h.01M531 65h.01M724 65h.01M870 65h.01M879 65h.01M9 74h.01M18 74h.01M531 74h.01M540 74h.01M1163 74h.01M421 83h.01M440 83h.01M586 83h.01M953 83h.01M962 83h.01M971 83h.01M980 83h.01M998 83h.01M1008 83h.01M1017 83h.01M1026 83h.01M1044 83h.01M1063 83h.01M1072 83h.01M1090 83h.01M1108 83h.01M1118 83h.01M1136 83h.01M1154 83h.01M1163 83h.01M1182 83h.01M1200 83h.01M0 92h.01M9 92h.01M18 92h.01M27 92h.01M37 92h.01M46 92h.01M568 92h.01M577 92h.01M641 92h.01M751 92h.01M0 101h.01M9 101h.01M18 101h.01M73 101h.01M211 101h.01M339 101h.01M568 101h.01M641 101h.01M650 101h.01M834 101h.01M843 101h.01M889 101h.01M907 101h.01M944 101h.01M55 110h.01M724 110h.01M733 110h.01M760 110h.01M944 110h.01M0 120h.01M9 120h.01M18 120h.01M27 120h.01M37 120h.01M46 120h.01M559 120h.01M577 120h.01M724 120h.01M733 120h.01M944 120h.01M9 129h.01M64 129h.01M73 129h.01M128 129h.01M165 129h.01M174 129h.01M183 129h.01M366 129h.01M376 129h.01M421 129h.01M431 129h.01M467 129h.01M495 129h.01M678 129h.01M953 129h.01M989 129h.01M998 129h.01M1044 129h.01M1081 129h.01M1090 129h.01M1173 129h.01M1182 129h.01M302 138h.01M357 138h.01M495 138h.01M504 138h.01M513 138h.01M522 138h.01M687 138h.01M769 138h.01M779 138h.01M788 138h.01M806 138h.01M9 147h.01M18 147h.01M128 147h.01M733 147h.01M824 147h.01M834 147h.01M843 147h.01M852 147h.01M916 147h.01M944 147h.01M9 156h.01M64 156h.01M73 156h.01M82 156h.01M531 156h.01M605 156h.01M669 156h.01M678 156h.01M916 156h.01M989 156h.01M1044 156h.01M128 165h.01M531 165h.01M568 165h.01M586 165h.01M705 165h.01M944 165h.01M0 175h.01M9 175h.01M18 175h.01M348 175h.01M623 175h.01M632 175h.01M705 175h.01M769 175h.01M779 175h.01M834 175h.01M944 175h.01M989 175h.01M1044 175h.01M1090 175h.01M0 184h.01M9 184h.01M18 184h.01M64 184h.01M73 184h.01M82 184h.01M128 184h.01M156 184h.01M183 184h.01M192 184h.01M229 184h.01M256 184h.01M266 184h.01M275 184h.01M284 184h.01M293 184h.01M403 184h.01M458 184h.01M467 184h.01M476 184h.01M669 184h.01M705 184h.01M769 184h.01M843 184h.01M934 184h.01M9 193h.01M256 193h.01M266 193h.01M321 193h.01M339 193h.01M595 193h.01M669 193h.01M724 193h.01M742 193h.01M751 193h.01M760 193h.01M788 193h.01M843 193h.01M852 193h.01M0 202h.01M18 202h.01M27 202h.01M37 202h.01M46 202h.01M64 202h.01M73 202h.01M82 202h.01M192 202h.01M229 202h.01M330 202h.01M412 202h.01M421 202h.01M431 202h.01M440 202h.01M449 202h.01M458 202h.01M797 202h.01M989 202h.01M1044 202h.01M1090 202h.01M9 211h.01M128 211h.01M238 211h.01M247 211h.01M650 211h.01M705 211h.01M733 211h.01M742 211h.01M751 211h.01M760 211h.01M824 211h.01M834 211h.01M852 211h.01M925 211h.01M293 220h.01M458 220h.01M852 220h.01M989 220h.01M1044 220h.01M1090 220h.01M0 230h.01M18 230h.01M27 230h.01M37 230h.01M46 230h.01M64 230h.01M73 230h.01M82 230h.01M211 230h.01M238 230h.01M293 230h.01M742 230h.01M797 230h.01M898 230h.01M989 230h.01M9 239h.01M137 239h.01M238 239h.01M247 239h.01M339 239h.01M348 239h.01M797 239h.01M870 239h.01M907 239h.01M128 248h.01M156 248h.01M183 248h.01M311 248h.01M394 248h.01M559 248h.01M797 248h.01M953 248h.01M989 248h.01M1008 248h.01M1026 248h.01M1063 248h.01M1081 248h.01M1099 248h.01M1118 248h.01M1154 248h.01M1191 248h.01M9 257h.01M18 257h.01M137 257h.01M165 257h.01M192 257h.01M302 257h.01M394 257h.01M495 257h.01M504 257h.01M513 257h.01M641 257h.01M660 257h.01M678 257h.01M687 257h.01M797 257h.01M824 257h.01M953 257h.01M989 257h.01M1008 257h.01M1026 257h.01M1063 257h.01M1081 257h.01M1099 257h.01M1118 257h.01M1154 257h.01M1191 257h.01M9 266h.01M137 266h.01M147 266h.01M220 266h.01M357 266h.01M394 266h.01M522 266h.01M577 266h.01M623 266h.01M660 266h.01M733 266h.01M64 275h.01M73 275h.01M82 275h.01M128 275h.01M174 275h.01M183 275h.01M220 275h.01M247 275h.01M256 275h.01M266 275h.01M339 275h.01M348 275h.01M421 275h.01M431 275h.01M449 275h.01M458 275h.01M559 275h.01M568 275h.01M623 275h.01M852 275h.01M861 275h.01M0 284h.01M9 284h.01M18 284h.01M37 284h.01M339 284h.01M348 284h.01M504 284h.01M513 284h.01M1008 284h.01M1026 284h.01M1063 284h.01M1081 284h.01M1099 284h.01M1154 284h.01M1191 284h.01M9 294h.01M18 294h.01M183 294h.01M229 294h.01M366 294h.01M989 294h.01M1008 294h.01M1026 294h.01M1044 294h.01M1063 294h.01M1081 294h.01M1099 294h.01M1118 294h.01M1154 294h.01M1173 294h.01M1191 294h.01M376 303h.01M421 303h.01M522 303h.01M531 303h.01M797 303h.01M989 303h.01M1008 303h.01M1026 303h.01M1063 303h.01M1081 303h.01M1099 303h.01M1118 303h.01M1154 303h.01M1191 303h.01M9 312h.01M421 312h.01M522 312h.01M531 312h.01M586 312h.01M623 312h.01M650 312h.01M660 312h.01M696 312h.01M769 312h.01M9 321h.01M339 321h.01M348 321h.01M605 321h.01M614 321h.01M769 321h.01M907 321h.01M1008 321h.01M1026 321h.01M1081 321h.01M1099 321h.01M1191 321h.01M128 330h.01M137 330h.01M147 330h.01M412 330h.01M440 330h.01M449 330h.01M531 330h.01M788 330h.01M815 330h.01M861 330h.01M953 330h.01M971 330h.01M989 330h.01M1008 330h.01M1026 330h.01M1044 330h.01M1063 330h.01M1081 330h.01M1099 330h.01M1118 330h.01M1136 330h.01M1154 330h.01M1173 330h.01M1191 330h.01M284 339h.01M311 339h.01M421 339h.01M779 339h.01M907 339h.01M1008 339h.01M1026 339h.01M1081 339h.01M1099 339h.01M1191 339h.01M220 349h.01M229 349h.01M321 349h.01M348 349h.01M357 349h.01M485 349h.01M531 349h.01M889 349h.01M934 349h.01M247 358h.01M348 358h.01M366 358h.01M495 358h.01M540 358h.01M889 358h.01M220 367h.01M623 367h.01M632 367h.01M641 367h.01M650 367h.01M1008 367h.01M1026 367h.01M1081 367h.01M1099 367h.01M1191 367h.01M128 376h.01M220 376h.01M330 376h.01M953 376h.01M971 376h.01M989 376h.01M1008 376h.01M1026 376h.01M1044 376h.01M1063 376h.01M1081 376h.01M1099 376h.01M1118 376h.01M1136 376h.01M1145 376h.01M1154 376h.01M1173 376h.01M1191 376h.01M211 385h.01M220 385h.01M339 385h.01M412 385h.01M531 385h.01M870 385h.01M934 385h.01M9 394h.01M284 394h.01M348 394h.01M412 394h.01M531 394h.01M733 394h.01M870 394h.01M962 394h.01M998 394h.01M1063 394h.01M1099 394h.01M1136 394h.01M1200 394h.01M64 404h.01M101 404h.01M110 404h.01M238 404h.01M348 404h.01M366 404h.01M431 404h.01M559 404h.01M1063 404h.01M37 413h.01M119 413h.01M128 413h.01M137 413h.01M147 413h.01M156 413h.01M165 413h.01M394 413h.01M495 413h.01M650 413h.01M696 413h.01M962 413h.01M998 413h.01M1035 413h.01M1099 413h.01M1136 413h.01M1163 413h.01M1200 413h.01M247 422h.01M421 422h.01M431 422h.01M531 422h.01M650 422h.01M760 422h.01M934 422h.01M1063 422h.01M64 431h.01M110 431h.01M137 431h.01M147 431h.01M156 431h.01M229 431h.01M238 431h.01M247 431h.01M421 431h.01M440 431h.01M531 431h.01M733 431h.01M843 431h.01M852 431h.01M962 431h.01M1035 431h.01M1063 431h.01M1099 431h.01M1136 431h.01M1163 431h.01M1200 431h.01M37 440h.01M321 440h.01M431 440h.01M495 440h.01M632 440h.01M907 440h.01M925 440h.01M1063 440h.01M119 449h.01M128 449h.01M165 449h.01M238 449h.01M302 449h.01M311 449h.01M623 449h.01M760 449h.01M916 449h.01M1063 449h.01M92 459h.01M586 459h.01M595 459h.01M678 459h.01M934 459h.01M1063 459h.01M110 468h.01M412 468h.01M962 468h.01M1063 468h.01M0 477h.01M9 477h.01M18 477h.01M27 477h.01M92 477h.01M101 477h.01M284 477h.01M293 477h.01M559 477h.01M889 477h.01M962 477h.01M980 477h.01M998 477h.01M1008 477h.01M1026 477h.01M1035 477h.01M1072 477h.01M1099 477h.01M1108 477h.01M1127 477h.01M1136 477h.01M1163 477h.01M1173 477h.01M1182 477h.01M1200 477h.01M696 486h.01M797 486h.01M861 486h.01M962 486h.01M1099 486h.01M82 495h.01M183 495h.01M302 495h.01M385 495h.01M458 495h.01M540 495h.01M614 495h.01M724 495h.01M733 495h.01M742 495h.01M751 495h.01M760 495h.01M861 495h.01M898 495h.01M907 495h.01M934 495h.01M944 495h.01M962 495h.01M971 495h.01M980 495h.01M998 495h.01M1008 495h.01M1026 495h.01M1035 495h.01M1053 495h.01M1072 495h.01M1081 495h.01M1108 495h.01M1127 495h.01M1136 495h.01M1145 495h.01M1163 495h.01M1173 495h.01M1182 495h.01M1191 495h.01M1200 495h.01M220 504h.01M275 504h.01M284 504h.01M348 504h.01M715 504h.01M742 504h.01M751 504h.01M889 504h.01M962 504h.01M1063 504h.01M37 513h.01M156 513h.01M284 513h.01M293 513h.01M330 513h.01M348 513h.01M586 513h.01M660 513h.01M678 513h.01M687 513h.01M696 513h.01M724 513h.01M733 513h.01M824 513h.01M898 513h.01M907 513h.01M916 513h.01M944 513h.01M962 513h.01M156 523h.01M192 523h.01M202 523h.01M211 523h.01M302 523h.01M321 523h.01M348 523h.01M449 523h.01M522 523h.01M586 523h.01M605 523h.01M660 523h.01M669 523h.01M788 523h.01M962 523h.01M1008 523h.01M1026 523h.01M1072 523h.01M1090 523h.01M1118 523h.01M1136 523h.01M1163 523h.01M1182 523h.01M1200 523h.01M18 532h.01M27 532h.01M55 532h.01M238 532h.01M302 532h.01M348 532h.01M385 532h.01M458 532h.01M568 532h.01M650 532h.01M797 532h.01M806 532h.01M861 532h.01M962 532h.01M1008 532h.01M1072 532h.01M1090 532h.01M1118 532h.01M1136 532h.01M1163 532h.01M1182 532h.01M18 541h.01M110 541h.01M724 541h.01M889 541h.01M962 541h.01M1008 541h.01M1026 541h.01M1072 541h.01M1090 541h.01M1118 541h.01M1182 541h.01M0 550h.01M9 550h.01M55 550h.01M64 550h.01M110 550h.01M174 550h.01M485 550h.01M925 550h.01M944 550h.01M962 550h.01M1008 550h.01M1072 550h.01M1090 550h.01M1118 550h.01M1136 550h.01M1163 550h.01M1182 550h.01M1200 550h.01M37 559h.01M46 559h.01M119 559h.01M128 559h.01M137 559h.01M147 559h.01M156 559h.01M183 559h.01M311 559h.01M339 559h.01M595 559h.01M660 559h.01M962 559h.01M1008 559h.01M1026 559h.01M1072 559h.01M1090 559h.01M1118 559h.01M1136 559h.01M1182 559h.01M64 568h.01M82 568h.01M183 568h.01M311 568h.01M321 568h.01M330 568h.01M595 568h.01M605 568h.01M751 568h.01M806 568h.01M962 568h.01M1008 568h.01M1026 568h.01M1072 568h.01M1090 568h.01M1118 568h.01M1136 568h.01M1182 568h.01M18 578h.01M27 578h.01M37 578h.01M55 578h.01M64 578h.01M73 578h.01M110 578h.01M540 578h.01M550 578h.01M559 578h.01M595 578h.01M605 578h.01M696 578h.01M742 578h.01M751 578h.01M797 578h.01M806 578h.01M944 578h.01M962 578h.01M1008 578h.01M1026 578h.01M1072 578h.01M1090 578h.01M1118 578h.01M110 587h.01M192 587h.01M284 587h.01M632 587h.01M824 587h.01M834 587h.01M962 587h.01M1008 587h.01M1072 587h.01M1090 587h.01M1118 587h.01M1136 587h.01M1182 587h.01M0 596h.01M9 596h.01M18 596h.01M46 596h.01M82 596h.01M92 596h.01M101 596h.01M110 596h.01M128 596h.01M174 596h.01M183 596h.01M192 596h.01M220 596h.01M550 596h.01M751 596h.01M760 596h.01M934 596h.01M944 596h.01M962 596h.01M1008 596h.01M1026 596h.01M1072 596h.01M1090 596h.01M1118 596h.01M1136 596h.01M1182 596h.01M1200 596h.01M330 605h.01M339 605h.01M385 605h.01M852 605h.01M137 614h.01M147 614h.01M339 614h.01M394 614h.01M559 614h.01M687 614h.01M962 614h.01M980 614h.01M998 614h.01M1017 614h.01M1035 614h.01M1053 614h.01M1072 614h.01M1090 614h.01M1108 614h.01M1163 614h.01M147 623h.01M284 623h.01M339 623h.01M559 623h.01M824 623h.01M660 633h.01M733 633h.01M0 642h.01M9 642h.01M18 642h.01M27 642h.01M73 642h.01M82 642h.01M101 642h.01M110 642h.01M238 642h.01M284 642h.01M513 642h.01M632 642h.01M815 642h.01M944 642h.01M962 642h.01M980 642h.01M998 642h.01M1017 642h.01M1035 642h.01M1053 642h.01M1072 642h.01M1090 642h.01M1108 642h.01M1127 642h.01M1145 642h.01M1163 642h.01M1200 642h.01M119 651h.01M321 651h.01M330 651h.01M412 651h.01M504 651h.01M513 651h.01M834 651h.01M852 651h.01M962 651h.01M980 651h.01M998 651h.01M1017 651h.01M1035 651h.01M1053 651h.01M1072 651h.01M1090 651h.01M1108 651h.01M1127 651h.01M1145 651h.01M1163 651h.01M1200 651h.01" stroke="currentColor" stroke-opacity="0.40" stroke-width="2.00" stroke-linecap="round" fill="none"/>
  <path d="M9 28h.01M18 28h.01M431 28h.01M440 28h.01M476 28h.01M495 28h.01M504 28h.01M513 28h.01M641 28h.01M660 28h.01M669 28h.01M715 28h.01M751 28h.01M760 28h.01M852 28h.01M962 28h.01M980 28h.01M1008 28h.01M1063 28h.01M1118 28h.01M476 37h.01M513 37h.01M797 37h.01M989 37h.01M1008 37h.01M1026 37h.01M1035 37h.01M1044 37h.01M1053 37h.01M1072 37h.01M1081 37h.01M1090 37h.01M1099 37h.01M1127 37h.01M1145 37h.01M1191 37h.01M0 46h.01M9 46h.01M18 46h.01M27 46h.01M46 46h.01M421 46h.01M431 46h.01M476 46h.01M485 46h.01M495 46h.01M504 46h.01M531 46h.01M650 46h.01M980 46h.01M1017 46h.01M1063 46h.01M9 55h.01M431 55h.01M449 55h.01M485 55h.01M660 55h.01M696 55h.01M944 55h.01M953 55h.01M962 55h.01M971 55h.01M989 55h.01M998 55h.01M1008 55h.01M1026 55h.01M1035 55h.01M1044 55h.01M1053 55h.01M1072 55h.01M1081 55h.01M1090 55h.01M1099 55h.01M1108 55h.01M1118 55h.01M1127 55h.01M1136 55h.01M1154 55h.01M1173 55h.01M1182 55h.01M1200 55h.01M449 65h.01M467 65h.01M476 65h.01M485 65h.01M522 65h.01M650 65h.01M751 65h.01M769 65h.01M889 65h.01M916 65h.01M953 65h.01M962 65h.01M971 65h.01M980 65h.01M998 65h.01M1017 65h.01M1063 65h.01M1108 65h.01M1118 65h.01M1136 65h.01M1154 65h.01M1163 65h.01M1173 65h.01M1182 65h.01M1200 65h.01M0 74h.01M27 74h.01M37 74h.01M46 74h.01M431 74h.01M440 74h.01M485 74h.01M495 74h.01M550 74h.01M559 74h.01M568 74h.01M577 74h.01M715 74h.01M824 74h.01M834 74h.01M843 74h.01M852 74h.01M934 74h.01M980 74h.01M1017 74h.01M1063 74h.01M9 83h.01M18 83h.01M431 83h.01M449 83h.01M522 83h.01M715 83h.01M815 83h.01M870 83h.01M989 83h.01M1035 83h.01M1053 83h.01M1081 83h.01M1099 83h.01M1127 83h.01M1145 83h.01M1173 83h.01M1191 83h.01M421 92h.01M431 92h.01M440 92h.01M485 92h.01M687 92h.01M705 92h.01M742 92h.01M760 92h.01M815 92h.01M907 92h.01M962 92h.01M980 92h.01M1017 92h.01M1063 92h.01M1118 92h.01M1154 92h.01M1163 92h.01M27 101h.01M37 101h.01M46 101h.01M64 101h.01M82 101h.01M119 101h.01M128 101h.01M156 101h.01M165 101h.01M174 101h.01M202 101h.01M220 101h.01M229 101h.01M247 101h.01M256 101h.01M293 101h.01M302 101h.01M311 101h.01M348 101h.01M357 101h.01M385 101h.01M394 101h.01M440 101h.01M577 101h.01M614 101h.01M623 101h.01M751 101h.01M779 101h.01M788 101h.01M852 101h.01M870 101h.01M953 101h.01M971 101h.01M980 101h.01M989 101h.01M998 101h.01M1008 101h.01M1026 101h.01M1044 101h.01M1072 101h.01M1081 101h.01M1090 101h.01M1108 101h.01M1118 101h.01M1127 101h.01M1136 101h.01M1145 101h.01M1154 101h.01M1163 101h.01M1173 101h.01M1182 101h.01M1200 101h.01M9 110h.01M92 110h.01M137 110h.01M211 110h.01M284 110h.01M321 110h.01M357 110h.01M440 110h.01M522 110h.01M687 110h.01M870 110h.01M879 110h.01M989 110h.01M998 110h.01M1044 110h.01M1081 110h.01M1090 110h.01M1127 110h.01M1163 110h.01M1173 110h.01M1182 110h.01M64 120h.01M73 120h.01M82 120h.01M101 120h.01M137 120h.01M211 120h.01M586 120h.01M760 120h.01M870 120h.01M989 120h.01M1044 120h.01M1090 120h.01M0 129h.01M18 129h.01M27 129h.01M37 129h.01M46 129h.01M82 129h.01M119 129h.01M229 129h.01M385 129h.01M394 129h.01M403 129h.01M412 129h.01M513 129h.01M669 129h.01M769 129h.01M788 129h.01M806 129h.01M971 129h.01M980 129h.01M1008 129h.01M1017 129h.01M1026 129h.01M1035 129h.01M1053 129h.01M1063 129h.01M1072 129h.01M1099 129h.01M1108 129h.01M1118 129h.01M1127 129h.01M1136 129h.01M1145 129h.01M1154 129h.01M1163 129h.01M1191 129h.01M1200 129h.01M9 138h.01M18 138h.01M64 138h.01M73 138h.01M82 138h.01M101 138h.01M110 138h.01M128 138h.01M220 138h.01M275 138h.01M284 138h.01M293 138h.01M440 138h.01M467 138h.01M476 138h.01M485 138h.01M660 138h.01M944 138h.01M989 138h.01M0 147h.01M27 147h.01M37 147h.01M46 147h.01M64 147h.01M73 147h.01M82 147h.01M311 147h.01M330 147h.01M339 147h.01M449 147h.01M458 147h.01M724 147h.01M769 147h.01M779 147h.01M788 147h.01M815 147h.01M861 147h.01M898 147h.01M989 147h.01M1044 147h.01M1090 147h.01M1163 147h.01M1182 147h.01M0 156h.01M18 156h.01M27 156h.01M37 156h.01M55 156h.01M92 156h.01M101 156h.01M128 156h.01M137 156h.01M302 156h.01M339 156h.01M348 156h.01M357 156h.01M540 156h.01M550 156h.01M559 156h.01M577 156h.01M614 156h.01M623 156h.01M632 156h.01M687 156h.01M715 156h.01M724 156h.01M742 156h.01M760 156h.01M769 156h.01M779 156h.01M788 156h.01M797 156h.01M806 156h.01M815 156h.01M824 156h.01M934 156h.01M944 156h.01M953 156h.01M971 156h.01M998 156h.01M1008 156h.01M1026 156h.01M1035 156h.01M1072 156h.01M1081 156h.01M1090 156h.01M1108 156h.01M1127 156h.01M1136 156h.01M1154 156h.01M1163 156h.01M1173 156h.01M1182 156h.01M9 165h.01M73 165h.01M101 165h.01M284 165h.01M403 165h.01M412 165h.01M595 165h.01M605 165h.01M650 165h.01M660 165h.01M678 165h.01M742 165h.01M751 165h.01M760 165h.01M843 165h.01M852 165h.01M907 165h.01M916 165h.01M925 165h.01M934 165h.01M989 165h.01M1044 165h.01M1081 165h.01M1090 165h.01M1163 165h.01M1182 165h.01M27 175h.01M37 175h.01M46 175h.01M64 175h.01M73 175h.01M82 175h.01M119 175h.01M128 175h.01M339 175h.01M366 175h.01M440 175h.01M449 175h.01M531 175h.01M788 175h.01M907 175h.01M953 175h.01M971 175h.01M980 175h.01M998 175h.01M1008 175h.01M1017 175h.01M1026 175h.01M1035 175h.01M1053 175h.01M1072 175h.01M1081 175h.01M1099 175h.01M1108 175h.01M1127 175h.01M1136 175h.01M1145 175h.01M1154 175h.01M1163 175h.01M1173 175h.01M1182 175h.01M1200 175h.01M27 184h.01M37 184h.01M46 184h.01M55 184h.01M92 184h.01M101 184h.01M110 184h.01M385 184h.01M394 184h.01M412 184h.01M485 184h.01M495 184h.01M504 184h.01M550 184h.01M605 184h.01M852 184h.01M944 184h.01M989 184h.01M1044 184h.01M1090 184h.01M1182 184h.01M0 193h.01M18 193h.01M64 193h.01M73 193h.01M82 193h.01M119 193h.01M128 193h.01M220 193h.01M311 193h.01M467 193h.01M614 193h.01M806 193h.01M815 193h.01M989 193h.01M998 193h.01M1026 193h.01M1044 193h.01M1081 193h.01M1090 193h.01M1127 193h.01M1163 193h.01M1173 193h.01M1182 193h.01M55 202h.01M92 202h.01M101 202h.01M110 202h.01M128 202h.01M165 202h.01M211 202h.01M247 202h.01M614 202h.01M641 202h.01M742 202h.01M769 202h.01M953 202h.01M971 202h.01M998 202h.01M1008 202h.01M1017 202h.01M1026 202h.01M1035 202h.01M1053 202h.01M1072 202h.01M1081 202h.01M1099 202h.01M1108 202h.01M1127 202h.01M1136 202h.01M1154 202h.01M1163 202h.01M1173 202h.01M1182 202h.01M0 211h.01M18 211h.01M27 211h.01M37 211h.01M46 211h.01M64 211h.01M73 211h.01M82 211h.01M403 211h.01M412 211h.01M687 211h.01M715 211h.01M788 211h.01M989 211h.01M1044 211h.01M1090 211h.01M9 220h.01M18 220h.01M64 220h.01M73 220h.01M82 220h.01M128 220h.01M220 220h.01M229 220h.01M321 220h.01M330 220h.01M412 220h.01M449 220h.01M605 220h.01M614 220h.01M678 220h.01M687 220h.01M724 220h.01M925 220h.01M971 220h.01M998 220h.01M1008 220h.01M1026 220h.01M1035 220h.01M1072 220h.01M1081 220h.01M1108 220h.01M1127 220h.01M1136 220h.01M1154 220h.01M1163 220h.01M1173 220h.01M1182 220h.01M55 230h.01M101 230h.01M202 230h.01M366 230h.01M385 230h.01M467 230h.01M568 230h.01M586 230h.01M733 230h.01M751 230h.01M916 230h.01M998 230h.01M1026 230h.01M1044 230h.01M1072 230h.01M1081 230h.01M1090 230h.01M1127 230h.01M1136 230h.01M1163 230h.01M1173 230h.01M1182 230h.01M0 239h.01M18 239h.01M27 239h.01M37 239h.01M46 239h.01M128 239h.01M156 239h.01M174 239h.01M577 239h.01M650 239h.01M715 239h.01M806 239h.01M989 239h.01M1081 239h.01M9 248h.01M18 248h.01M64 248h.01M73 248h.01M82 248h.01M101 248h.01M137 248h.01M321 248h.01M431 248h.01M476 248h.01M485 248h.01M540 248h.01M641 248h.01M696 248h.01M724 248h.01M733 248h.01M742 248h.01M751 248h.01M760 248h.01M824 248h.01M852 248h.01M916 248h.01M962 248h.01M971 248h.01M998 248h.01M1044 248h.01M1053 248h.01M1072 248h.01M1136 248h.01M1145 248h.01M1163 248h.01M1173 248h.01M1182 248h.01M1200 248h.01M0 257h.01M27 257h.01M37 257h.01M46 257h.01M64 257h.01M73 257h.01M82 257h.01M119 257h.01M128 257h.01M147 257h.01M156 257h.01M220 257h.01M522 257h.01M669 257h.01M907 257h.01M962 257h.01M971 257h.01M998 257h.01M1044 257h.01M1053 257h.01M1072 257h.01M1127 257h.01M1136 257h.01M1145 257h.01M1163 257h.01M1173 257h.01M1182 257h.01M1200 257h.01M0 266h.01M18 266h.01M27 266h.01M37 266h.01M101 266h.01M128 266h.01M156 266h.01M192 266h.01M366 266h.01M376 266h.01M467 266h.01M476 266h.01M485 266h.01M568 266h.01M586 266h.01M632 266h.01M797 266h.01M824 266h.01M852 266h.01M1008 266h.01M1026 266h.01M1081 266h.01M1099 266h.01M1191 266h.01M55 275h.01M101 275h.01M165 275h.01M229 275h.01M238 275h.01M440 275h.01M577 275h.01M595 275h.01M733 275h.01M898 275h.01M953 275h.01M989 275h.01M1008 275h.01M1026 275h.01M1044 275h.01M1063 275h.01M1081 275h.01M1099 275h.01M1118 275h.01M1154 275h.01M1191 275h.01M27 284h.01M46 284h.01M73 284h.01M220 284h.01M321 284h.01M357 284h.01M495 284h.01M522 284h.01M650 284h.01M861 284h.01M953 284h.01M962 284h.01M971 284h.01M989 284h.01M998 284h.01M1044 284h.01M1053 284h.01M1072 284h.01M1118 284h.01M1136 284h.01M1145 284h.01M1163 284h.01M1173 284h.01M1182 284h.01M1200 284h.01M0 294h.01M27 294h.01M37 294h.01M46 294h.01M64 294h.01M73 294h.01M82 294h.01M101 294h.01M128 294h.01M156 294h.01M330 294h.01M412 294h.01M449 294h.01M467 294h.01M586 294h.01M889 294h.01M953 294h.01M962 294h.01M971 294h.01M998 294h.01M1053 294h.01M1072 294h.01M1127 294h.01M1136 294h.01M1145 294h.01M1163 294h.01M1182 294h.01M1200 294h.01M64 303h.01M73 303h.01M82 303h.01M238 303h.01M247 303h.01M256 303h.01M321 303h.01M348 303h.01M357 303h.01M394 303h.01M403 303h.01M412 303h.01M458 303h.01M467 303h.01M605 303h.01M760 303h.01M843 303h.01M953 303h.01M971 303h.01M998 303h.01M1044 303h.01M1136 303h.01M1145 303h.01M1173 303h.01M0 312h.01M18 312h.01M27 312h.01M37 312h.01M46 312h.01M128 312h.01M238 312h.01M247 312h.01M339 312h.01M348 312h.01M357 312h.01M366 312h.01M376 312h.01M385 312h.01M614 312h.01M669 312h.01M760 312h.01M852 312h.01M861 312h.01M953 312h.01M989 312h.01M1008 312h.01M1026 312h.01M1063 312h.01M1081 312h.01M1099 312h.01M1118 312h.01M1154 312h.01M1191 312h.01M0 321h.01M18 321h.01M27 321h.01M37 321h.01M46 321h.01M64 321h.01M73 321h.01M82 321h.01M147 321h.01M211 321h.01M302 321h.01M311 321h.01M449 321h.01M531 321h.01M669 321h.01M779 321h.01M834 321h.01M843 321h.01M852 321h.01M953 321h.01M971 321h.01M989 321h.01M1044 321h.01M1063 321h.01M1118 321h.01M1136 321h.01M1154 321h.01M1173 321h.01M73 330h.01M238 330h.01M247 330h.01M311 330h.01M339 330h.01M348 330h.01M403 330h.01M421 330h.01M431 330h.01M614 330h.01M669 330h.01M751 330h.01M760 330h.01M797 330h.01M806 330h.01M907 330h.01M944 330h.01M962 330h.01M980 330h.01M998 330h.01M1017 330h.01M1035 330h.01M1053 330h.01M1072 330h.01M1090 330h.01M1108 330h.01M1127 330h.01M1145 330h.01M1163 330h.01M1182 330h.01M1200 330h.01M101 339h.01M128 339h.01M137 339h.01M147 339h.01M302 339h.01M321 339h.01M376 339h.01M385 339h.01M449 339h.01M650 339h.01M696 339h.01M751 339h.01M769 339h.01M788 339h.01M953 339h.01M971 339h.01M989 339h.01M1044 339h.01M1063 339h.01M1118 339h.01M1136 339h.01M1154 339h.01M1173 339h.01M0 349h.01M18 349h.01M27 349h.01M37 349h.01M46 349h.01M64 349h.01M73 349h.01M82 349h.01M128 349h.01M156 349h.01M293 349h.01M476 349h.01M522 349h.01M696 349h.01M724 349h.01M733 349h.01M788 349h.01M879 349h.01M953 349h.01M989 349h.01M1008 349h.01M1026 349h.01M1063 349h.01M1081 349h.01M1099 349h.01M1118 349h.01M1154 349h.01M1191 349h.01M101 358h.01M128 358h.01M238 358h.01M293 358h.01M531 358h.01M550 358h.01M1008 358h.01M1026 358h.01M1063 358h.01M1081 358h.01M1099 358h.01M1154 358h.01M1191 358h.01M55 367h.01M128 367h.01M275 367h.01M302 367h.01M311 367h.01M357 367h.01M366 367h.01M394 367h.01M476 367h.01M485 367h.01M495 367h.01M660 367h.01M861 367h.01M870 367h.01M953 367h.01M971 367h.01M989 367h.01M1044 367h.01M1063 367h.01M1118 367h.01M1136 367h.01M1145 367h.01M1154 367h.01M1173 367h.01M137 376h.01M147 376h.01M266 376h.01M275 376h.01M284 376h.01M641 376h.01M650 376h.01M669 376h.01M742 376h.01M751 376h.01M944 376h.01M962 376h.01M980 376h.01M998 376h.01M1017 376h.01M1035 376h.01M1053 376h.01M1072 376h.01M1090 376h.01M1108 376h.01M1127 376h.01M1163 376h.01M1182 376h.01M1200 376h.01M18 385h.01M27 385h.01M37 385h.01M174 385h.01M183 385h.01M192 385h.01M202 385h.01M266 385h.01M321 385h.01M330 385h.01M357 385h.01M476 385h.01M485 385h.01M540 385h.01M568 385h.01M577 385h.01M660 385h.01M889 385h.01M925 385h.01M0 394h.01M46 394h.01M55 394h.01M64 394h.01M73 394h.01M82 394h.01M92 394h.01M101 394h.01M110 394h.01M119 394h.01M128 394h.01M339 394h.01M476 394h.01M485 394h.01M595 394h.01M623 394h.01M632 394h.01M650 394h.01M660 394h.01M797 394h.01M852 394h.01M889 394h.01M907 394h.01M925 394h.01M934 394h.01M944 394h.01M971 394h.01M980 394h.01M1008 394h.01M1026 394h.01M1035 394h.01M1053 394h.01M1072 394h.01M1081 394h.01M1108 394h.01M1127 394h.01M1145 394h.01M1163 394h.01M1173 394h.01M1182 394h.01M1191 394h.01M229 404h.01M357 404h.01M394 404h.01M440 404h.01M522 404h.01M696 404h.01M834 404h.01M843 404h.01M907 404h.01M962 404h.01M998 404h.01M1035 404h.01M1099 404h.01M1108 404h.01M1127 404h.01M1136 404h.01M1163 404h.01M1173 404h.01M1200 404h.01M64 413h.01M92 413h.01M174 413h.01M238 413h.01M247 413h.01M476 413h.01M540 413h.01M623 413h.01M632 413h.01M641 413h.01M660 413h.01M852 413h.01M861 413h.01M953 413h.01M971 413h.01M980 413h.01M989 413h.01M1008 413h.01M1026 413h.01M1044 413h.01M1053 413h.01M1072 413h.01M1081 413h.01M1090 413h.01M1108 413h.01M1127 413h.01M1145 413h.01M1154 413h.01M1173 413h.01M1182 413h.01M1191 413h.01M137 422h.01M165 422h.01M275 422h.01M284 422h.01M339 422h.01M385 422h.01M449 422h.01M458 422h.01M513 422h.01M733 422h.01M962 422h.01M1099 422h.01M1163 422h.01M9 431h.01M18 431h.01M101 431h.01M119 431h.01M266 431h.01M394 431h.01M403 431h.01M412 431h.01M504 431h.01M513 431h.01M550 431h.01M586 431h.01M632 431h.01M724 431h.01M760 431h.01M769 431h.01M834 431h.01M861 431h.01M953 431h.01M971 431h.01M980 431h.01M989 431h.01M998 431h.01M1008 431h.01M1026 431h.01M1044 431h.01M1053 431h.01M1072 431h.01M1081 431h.01M1090 431h.01M1108 431h.01M1127 431h.01M1145 431h.01M1154 431h.01M1173 431h.01M1182 431h.01M1191 431h.01M220 440h.01M238 440h.01M256 440h.01M339 440h.01M348 440h.01M366 440h.01M531 440h.01M660 440h.01M724 440h.01M815 440h.01M834 440h.01M898 440h.01M934 440h.01M962 440h.01M998 440h.01M1099 440h.01M1163 440h.01M1200 440h.01M73 449h.01M82 449h.01M229 449h.01M321 449h.01M330 449h.01M650 449h.01M660 449h.01M669 449h.01M751 449h.01M769 449h.01M806 449h.01M852 449h.01M861 449h.01M907 449h.01M962 449h.01M998 449h.01M1008 449h.01M1035 449h.01M1072 449h.01M1099 449h.01M1108 449h.01M1127 449h.01M1136 449h.01M1163 449h.01M1173 449h.01M1200 449h.01M101 459h.01M440 459h.01M449 459h.01M623 459h.01M641 459h.01M669 459h.01M760 459h.01M962 459h.01M998 459h.01M1035 459h.01M1099 459h.01M1136 459h.01M1163 459h.01M1200 459h.01M0 468h.01M9 468h.01M18 468h.01M27 468h.01M421 468h.01M440 468h.01M495 468h.01M769 468h.01M971 468h.01M998 468h.01M1008 468h.01M1026 468h.01M1035 468h.01M1072 468h.01M1099 468h.01M1108 468h.01M1127 468h.01M1136 468h.01M1163 468h.01M1173 468h.01M1200 468h.01M330 477h.01M339 477h.01M348 477h.01M403 477h.01M531 477h.01M623 477h.01M705 477h.01M861 477h.01M934 477h.01M944 477h.01M953 477h.01M971 477h.01M989 477h.01M1017 477h.01M1044 477h.01M1053 477h.01M1081 477h.01M1090 477h.01M1145 477h.01M1154 477h.01M1191 477h.01M156 486h.01M165 486h.01M339 486h.01M458 486h.01M806 486h.01M870 486h.01M925 486h.01M998 486h.01M1008 486h.01M1026 486h.01M1035 486h.01M1072 486h.01M1108 486h.01M1127 486h.01M1136 486h.01M1163 486h.01M1173 486h.01M1200 486h.01M0 495h.01M220 495h.01M311 495h.01M495 495h.01M632 495h.01M852 495h.01M953 495h.01M989 495h.01M1017 495h.01M1044 495h.01M1090 495h.01M1118 495h.01M1154 495h.01M9 504h.01M37 504h.01M211 504h.01M339 504h.01M357 504h.01M476 504h.01M531 504h.01M614 504h.01M641 504h.01M650 504h.01M705 504h.01M971 504h.01M998 504h.01M1008 504h.01M1026 504h.01M1035 504h.01M1072 504h.01M1099 504h.01M1108 504h.01M1127 504h.01M1136 504h.01M1163 504h.01M1173 504h.01M1200 504h.01M101 513h.01M165 513h.01M247 513h.01M357 513h.01M366 513h.01M394 513h.01M550 513h.01M559 513h.01M595 513h.01M623 513h.01M669 513h.01M779 513h.01M797 513h.01M998 513h.01M1008 513h.01M1026 513h.01M1035 513h.01M1063 513h.01M1072 513h.01M1090 513h.01M1099 513h.01M1118 513h.01M1136 513h.01M1163 513h.01M1182 513h.01M1200 513h.01M119 523h.01M256 523h.01M339 523h.01M458 523h.01M595 523h.01M614 523h.01M705 523h.01M715 523h.01M815 523h.01M889 523h.01M944 523h.01M953 523h.01M971 523h.01M980 523h.01M989 523h.01M998 523h.01M1035 523h.01M1044 523h.01M1053 523h.01M1081 523h.01M1099 523h.01M1108 523h.01M1127 523h.01M1145 523h.01M1154 523h.01M73 532h.01M183 532h.01M220 532h.01M311 532h.01M449 532h.01M495 532h.01M550 532h.01M559 532h.01M577 532h.01M742 532h.01M751 532h.01M779 532h.01M788 532h.01M852 532h.01M944 532h.01M980 532h.01M989 532h.01M998 532h.01M1053 532h.01M1081 532h.01M1099 532h.01M1145 532h.01M1154 532h.01M1200 532h.01M9 541h.01M27 541h.01M73 541h.01M119 541h.01M128 541h.01M174 541h.01M311 541h.01M641 541h.01M715 541h.01M751 541h.01M760 541h.01M815 541h.01M824 541h.01M944 541h.01M980 541h.01M989 541h.01M998 541h.01M1053 541h.01M1127 541h.01M1136 541h.01M1145 541h.01M1154 541h.01M1163 541h.01M1200 541h.01M37 550h.01M46 550h.01M101 550h.01M348 550h.01M824 550h.01M889 550h.01M980 550h.01M989 550h.01M1053 550h.01M1099 550h.01M1145 550h.01M1154 550h.01M82 559h.01M92 559h.01M284 559h.01M348 559h.01M522 559h.01M531 559h.01M687 559h.01M696 559h.01M751 559h.01M834 559h.01M980 559h.01M989 559h.01M998 559h.01M1053 559h.01M1127 559h.01M1145 559h.01M1154 559h.01M1163 559h.01M1200 559h.01M256 568h.01M302 568h.01M431 568h.01M495 568h.01M504 568h.01M550 568h.01M742 568h.01M980 568h.01M989 568h.01M1053 568h.01M1145 568h.01M1154 568h.01M1163 568h.01M1200 568h.01M9 578h.01M302 578h.01M330 578h.01M403 578h.01M412 578h.01M531 578h.01M586 578h.01M724 578h.01M733 578h.01M779 578h.01M788 578h.01M824 578h.01M834 578h.01M843 578h.01M852 578h.01M980 578h.01M989 578h.01M1053 578h.01M1136 578h.01M1145 578h.01M1154 578h.01M1163 578h.01M1182 578h.01M1200 578h.01M275 587h.01M495 587h.01M540 587h.01M550 587h.01M623 587h.01M715 587h.01M769 587h.01M779 587h.01M788 587h.01M907 587h.01M916 587h.01M925 587h.01M980 587h.01M989 587h.01M1053 587h.01M1099 587h.01M1145 587h.01M1154 587h.01M1163 587h.01M1200 587h.01M37 596h.01M229 596h.01M238 596h.01M247 596h.01M256 596h.01M284 596h.01M293 596h.01M330 596h.01M376 596h.01M385 596h.01M458 596h.01M513 596h.01M559 596h.01M623 596h.01M742 596h.01M861 596h.01M971 596h.01M980 596h.01M989 596h.01M998 596h.01M1035 596h.01M1044 596h.01M1053 596h.01M1081 596h.01M1099 596h.01M1108 596h.01M1127 596h.01M1145 596h.01M1154 596h.01M1163 596h.01M137 605h.01M147 605h.01M348 605h.01M467 605h.01M476 605h.01M687 605h.01M962 605h.01M980 605h.01M998 605h.01M1008 605h.01M1026 605h.01M1035 605h.01M1053 605h.01M1072 605h.01M1090 605h.01M1108 605h.01M1118 605h.01M1127 605h.01M1136 605h.01M1145 605h.01M1154 605h.01M1163 605h.01M1182 605h.01M1200 605h.01M0 614h.01M9 614h.01M18 614h.01M27 614h.01M37 614h.01M46 614h.01M55 614h.01M101 614h.01M128 614h.01M247 614h.01M284 614h.01M348 614h.01M586 614h.01M971 614h.01M989 614h.01M1008 614h.01M1026 614h.01M1081 614h.01M1099 614h.01M1118 614h.01M1127 614h.01M1136 614h.01M1145 614h.01M1154 614h.01M1173 614h.01M1182 614h.01M1191 614h.01M1200 614h.01M0 623h.01M9 623h.01M18 623h.01M27 623h.01M37 623h.01M46 623h.01M55 623h.01M82 623h.01M110 623h.01M137 623h.01M238 623h.01M266 623h.01M348 623h.01M403 623h.01M540 623h.01M586 623h.01M696 623h.01M705 623h.01M962 623h.01M980 623h.01M998 623h.01M1017 623h.01M1035 623h.01M1053 623h.01M1072 623h.01M1090 623h.01M1108 623h.01M1127 623h.01M1145 623h.01M1163 623h.01M0 633h.01M9 633h.01M18 633h.01M27 633h.01M37 633h.01M46 633h.01M73 633h.01M82 633h.01M92 633h.01M119 633h.01M247 633h.01M256 633h.01M284 633h.01M531 633h.01M641 633h.01M715 633h.01M779 633h.01M944 633h.01M980 633h.01M998 633h.01M1035 633h.01M1053 633h.01M1072 633h.01M1108 633h.01M1163 633h.01M37 642h.01M64 642h.01M128 642h.01M137 642h.01M147 642h.01M156 642h.01M202 642h.01M211 642h.01M220 642h.01M229 642h.01M385 642h.01M412 642h.01M421 642h.01M431 642h.01M440 642h.01M458 642h.01M540 642h.01M641 642h.01M678 642h.01M687 642h.01M806 642h.01M824 642h.01M834 642h.01M870 642h.01M953 642h.01M971 642h.01M989 642h.01M1008 642h.01M1026 642h.01M1044 642h.01M1081 642h.01M1099 642h.01M1118 642h.01M1136 642h.01M1154 642h.01M1173 642h.01M1182 642h.01M1191 642h.01M37 651h.01M110 651h.01M137 651h.01M403 651h.01M696 651h.01M705 651h.01M971 651h.01M989 651h.01M1008 651h.01M1026 651h.01M1081 651h.01M1099 651h.01M1118 651h.01M1136 651h.01M1154 651h.01M1173 651h.01M1182 651h.01M1191 651h.01" stroke="currentColor" stroke-opacity="0.46" stroke-width="2.90" stroke-linecap="round" fill="none"/>
  <path d="M0 28h.01M27 28h.01M37 28h.01M46 28h.01M421 28h.01M449 28h.01M614 28h.01M623 28h.01M632 28h.01M678 28h.01M705 28h.01M733 28h.01M742 28h.01M843 28h.01M898 28h.01M907 28h.01M953 28h.01M971 28h.01M998 28h.01M1017 28h.01M1026 28h.01M1035 28h.01M1072 28h.01M1081 28h.01M1108 28h.01M1127 28h.01M1136 28h.01M1154 28h.01M1173 28h.01M1182 28h.01M1200 28h.01M485 37h.01M577 37h.01M678 37h.01M815 37h.01M944 37h.01M1173 37h.01M37 46h.01M449 46h.01M467 46h.01M540 46h.01M641 46h.01M779 46h.01M962 46h.01M971 46h.01M998 46h.01M1081 46h.01M1108 46h.01M1118 46h.01M1127 46h.01M1136 46h.01M1154 46h.01M1163 46h.01M1173 46h.01M1182 46h.01M1200 46h.01M0 55h.01M18 55h.01M27 55h.01M46 55h.01M458 55h.01M467 55h.01M476 55h.01M495 55h.01M522 55h.01M916 55h.01M1145 55h.01M1191 55h.01M458 65h.01M495 65h.01M504 65h.01M513 65h.01M641 65h.01M678 65h.01M715 65h.01M760 65h.01M989 65h.01M1008 65h.01M1026 65h.01M1035 65h.01M1044 65h.01M1053 65h.01M1072 65h.01M1081 65h.01M1090 65h.01M1099 65h.01M1127 65h.01M421 74h.01M449 74h.01M476 74h.01M504 74h.01M522 74h.01M605 74h.01M650 74h.01M660 74h.01M724 74h.01M760 74h.01M861 74h.01M870 74h.01M944 74h.01M953 74h.01M962 74h.01M971 74h.01M998 74h.01M1008 74h.01M1035 74h.01M1081 74h.01M1108 74h.01M1118 74h.01M1127 74h.01M1136 74h.01M1154 74h.01M1182 74h.01M1200 74h.01M0 83h.01M27 83h.01M46 83h.01M458 83h.01M467 83h.01M476 83h.01M595 83h.01M623 83h.01M632 83h.01M751 83h.01M879 83h.01M449 92h.01M467 92h.01M476 92h.01M495 92h.01M504 92h.01M522 92h.01M531 92h.01M540 92h.01M550 92h.01M559 92h.01M586 92h.01M595 92h.01M650 92h.01M797 92h.01M806 92h.01M834 92h.01M843 92h.01M852 92h.01M934 92h.01M944 92h.01M953 92h.01M971 92h.01M998 92h.01M1008 92h.01M1026 92h.01M1035 92h.01M1072 92h.01M1081 92h.01M1108 92h.01M1127 92h.01M1136 92h.01M1173 92h.01M1182 92h.01M1200 92h.01M92 101h.01M101 101h.01M110 101h.01M137 101h.01M147 101h.01M192 101h.01M266 101h.01M275 101h.01M284 101h.01M321 101h.01M330 101h.01M366 101h.01M376 101h.01M403 101h.01M431 101h.01M485 101h.01M522 101h.01M531 101h.01M632 101h.01M669 101h.01M678 101h.01M742 101h.01M769 101h.01M898 101h.01M962 101h.01M1017 101h.01M1035 101h.01M1053 101h.01M1063 101h.01M1099 101h.01M1191 101h.01M0 110h.01M18 110h.01M101 110h.01M110 110h.01M119 110h.01M128 110h.01M156 110h.01M165 110h.01M174 110h.01M192 110h.01M202 110h.01M220 110h.01M229 110h.01M247 110h.01M256 110h.01M275 110h.01M293 110h.01M302 110h.01M311 110h.01M330 110h.01M339 110h.01M348 110h.01M366 110h.01M376 110h.01M385 110h.01M394 110h.01M403 110h.01M431 110h.01M449 110h.01M467 110h.01M476 110h.01M485 110h.01M513 110h.01M531 110h.01M586 110h.01M614 110h.01M769 110h.01M843 110h.01M953 110h.01M971 110h.01M980 110h.01M1008 110h.01M1026 110h.01M1035 110h.01M1053 110h.01M1072 110h.01M1099 110h.01M1108 110h.01M1136 110h.01M1145 110h.01M1154 110h.01M1200 110h.01M110 120h.01M311 120h.01M321 120h.01M522 120h.01M531 120h.01M605 120h.01M769 120h.01M815 120h.01M834 120h.01M953 120h.01M971 120h.01M980 120h.01M998 120h.01M1008 120h.01M1026 120h.01M1035 120h.01M1072 120h.01M1081 120h.01M1108 120h.01M1127 120h.01M1136 120h.01M1154 120h.01M1163 120h.01M1173 120h.01M1182 120h.01M55 129h.01M101 129h.01M211 129h.01M339 129h.01M614 129h.01M742 129h.01M751 129h.01M962 129h.01M0 138h.01M27 138h.01M37 138h.01M46 138h.01M266 138h.01M540 138h.01M742 138h.01M751 138h.01M797 138h.01M998 138h.01M1044 138h.01M1081 138h.01M1090 138h.01M1163 138h.01M1182 138h.01M101 147h.01M119 147h.01M156 147h.01M192 147h.01M229 147h.01M321 147h.01M348 147h.01M366 147h.01M440 147h.01M504 147h.01M513 147h.01M605 147h.01M614 147h.01M641 147h.01M687 147h.01M907 147h.01M953 147h.01M971 147h.01M980 147h.01M998 147h.01M1008 147h.01M1026 147h.01M1035 147h.01M1053 147h.01M1072 147h.01M1081 147h.01M1108 147h.01M1127 147h.01M1136 147h.01M1145 147h.01M1154 147h.01M1173 147h.01M46 156h.01M110 156h.01M119 156h.01M147 156h.01M174 156h.01M192 156h.01M293 156h.01M330 156h.01M568 156h.01M641 156h.01M650 156h.01M705 156h.01M733 156h.01M834 156h.01M907 156h.01M980 156h.01M1017 156h.01M1053 156h.01M1063 156h.01M1099 156h.01M1118 156h.01M1145 156h.01M1191 156h.01M1200 156h.01M0 165h.01M18 165h.01M27 165h.01M64 165h.01M82 165h.01M119 165h.01M137 165h.01M174 165h.01M183 165h.01M256 165h.01M275 165h.01M311 165h.01M339 165h.01M431 165h.01M440 165h.01M476 165h.01M485 165h.01M614 165h.01M641 165h.01M769 165h.01M815 165h.01M861 165h.01M898 165h.01M953 165h.01M971 165h.01M980 165h.01M998 165h.01M1008 165h.01M1026 165h.01M1035 165h.01M1053 165h.01M1072 165h.01M1108 165h.01M1127 165h.01M1136 165h.01M1145 165h.01M1154 165h.01M1173 165h.01M101 175h.01M229 175h.01M275 175h.01M284 175h.01M330 175h.01M412 175h.01M614 175h.01M660 175h.01M733 175h.01M760 175h.01M815 175h.01M962 175h.01M1063 175h.01M1118 175h.01M1191 175h.01M211 184h.01M238 184h.01M339 184h.01M641 184h.01M815 184h.01M953 184h.01M971 184h.01M998 184h.01M1008 184h.01M1026 184h.01M1035 184h.01M1072 184h.01M1081 184h.01M1108 184h.01M1127 184h.01M1136 184h.01M1154 184h.01M1163 184h.01M1173 184h.01M27 193h.01M37 193h.01M46 193h.01M101 193h.01M137 193h.01M211 193h.01M302 193h.01M348 193h.01M715 193h.01M824 193h.01M834 193h.01M861 193h.01M907 193h.01M916 193h.01M944 193h.01M953 193h.01M971 193h.01M980 193h.01M1008 193h.01M1035 193h.01M1053 193h.01M1072 193h.01M1099 193h.01M1108 193h.01M1136 193h.01M1145 193h.01M1154 193h.01M1200 193h.01M174 202h.01M339 202h.01M403 202h.01M531 202h.01M806 202h.01M815 202h.01M843 202h.01M944 202h.01M980 202h.01M1063 202h.01M1118 202h.01M1145 202h.01M1191 202h.01M1200 202h.01M101 211h.01M119 211h.01M137 211h.01M183 211h.01M614 211h.01M641 211h.01M769 211h.01M779 211h.01M861 211h.01M898 211h.01M998 211h.01M1026 211h.01M1035 211h.01M1072 211h.01M1081 211h.01M1108 211h.01M1127 211h.01M1136 211h.01M1163 211h.01M1173 211h.01M1182 211h.01M0 220h.01M27 220h.01M37 220h.01M46 220h.01M101 220h.01M119 220h.01M165 220h.01M256 220h.01M266 220h.01M275 220h.01M284 220h.01M302 220h.01M376 220h.01M385 220h.01M403 220h.01M440 220h.01M467 220h.01M577 220h.01M669 220h.01M733 220h.01M742 220h.01M751 220h.01M843 220h.01M861 220h.01M907 220h.01M934 220h.01M944 220h.01M953 220h.01M980 220h.01M1017 220h.01M1053 220h.01M1063 220h.01M1099 220h.01M1118 220h.01M1145 220h.01M1191 220h.01M1200 220h.01M92 230h.01M110 230h.01M174 230h.01M220 230h.01M229 230h.01M266 230h.01M495 230h.01M724 230h.01M852 230h.01M861 230h.01M925 230h.01M944 230h.01M953 230h.01M971 230h.01M980 230h.01M1008 230h.01M1035 230h.01M1053 230h.01M1099 230h.01M1108 230h.01M1118 230h.01M1145 230h.01M1154 230h.01M1191 230h.01M1200 230h.01M64 239h.01M73 239h.01M82 239h.01M101 239h.01M119 239h.01M165 239h.01M211 239h.01M220 239h.01M229 239h.01M256 239h.01M266 239h.01M302 239h.01M330 239h.01M366 239h.01M376 239h.01M431 239h.01M440 239h.01M550 239h.01M559 239h.01M605 239h.01M641 239h.01M660 239h.01M705 239h.01M724 239h.01M769 239h.01M779 239h.01M879 239h.01M898 239h.01M953 239h.01M998 239h.01M1008 239h.01M1026 239h.01M1044 239h.01M1099 239h.01M1136 239h.01M1154 239h.01M1173 239h.01M1182 239h.01M1191 239h.01M0 248h.01M27 248h.01M37 248h.01M46 248h.01M110 248h.01M147 248h.01M192 248h.01M202 248h.01M211 248h.01M229 248h.01M302 248h.01M440 248h.01M467 248h.01M495 248h.01M577 248h.01M614 248h.01M705 248h.01M715 248h.01M769 248h.01M843 248h.01M898 248h.01M907 248h.01M944 248h.01M980 248h.01M1017 248h.01M1035 248h.01M1090 248h.01M1108 248h.01M1127 248h.01M101 257h.01M266 257h.01M366 257h.01M769 257h.01M944 257h.01M980 257h.01M1017 257h.01M1035 257h.01M1090 257h.01M1108 257h.01M46 266h.01M64 266h.01M73 266h.01M82 266h.01M110 266h.01M165 266h.01M266 266h.01M311 266h.01M385 266h.01M403 266h.01M513 266h.01M531 266h.01M669 266h.01M696 266h.01M870 266h.01M916 266h.01M953 266h.01M971 266h.01M989 266h.01M1044 266h.01M1063 266h.01M1118 266h.01M1136 266h.01M1145 266h.01M1154 266h.01M1173 266h.01M9 275h.01M92 275h.01M110 275h.01M119 275h.01M293 275h.01M650 275h.01M769 275h.01M962 275h.01M971 275h.01M998 275h.01M1053 275h.01M1072 275h.01M1136 275h.01M1145 275h.01M1163 275h.01M1173 275h.01M1182 275h.01M1200 275h.01M64 284h.01M82 284h.01M101 284h.01M128 284h.01M284 284h.01M311 284h.01M394 284h.01M485 284h.01M660 284h.01M715 284h.01M898 284h.01M980 284h.01M1017 284h.01M1035 284h.01M1090 284h.01M1108 284h.01M1127 284h.01M110 294h.01M174 294h.01M357 294h.01M440 294h.01M458 294h.01M632 294h.01M715 294h.01M733 294h.01M861 294h.01M934 294h.01M980 294h.01M1017 294h.01M1035 294h.01M1090 294h.01M1108 294h.01M9 303h.01M18 303h.01M55 303h.01M119 303h.01M128 303h.01M183 303h.01M284 303h.01M330 303h.01M339 303h.01M385 303h.01M595 303h.01M669 303h.01M769 303h.01M944 303h.01M962 303h.01M980 303h.01M1035 303h.01M1053 303h.01M1072 303h.01M1090 303h.01M1108 303h.01M1127 303h.01M1163 303h.01M1182 303h.01M1200 303h.01M64 312h.01M73 312h.01M82 312h.01M101 312h.01M110 312h.01M256 312h.01M302 312h.01M394 312h.01M458 312h.01M595 312h.01M605 312h.01M678 312h.01M687 312h.01M733 312h.01M742 312h.01M751 312h.01M797 312h.01M843 312h.01M870 312h.01M907 312h.01M916 312h.01M944 312h.01M962 312h.01M971 312h.01M998 312h.01M1044 312h.01M1053 312h.01M1072 312h.01M1136 312h.01M1145 312h.01M1173 312h.01M1182 312h.01M55 321h.01M101 321h.01M119 321h.01M128 321h.01M137 321h.01M156 321h.01M165 321h.01M247 321h.01M256 321h.01M266 321h.01M330 321h.01M394 321h.01M421 321h.01M440 321h.01M623 321h.01M678 321h.01M705 321h.01M715 321h.01M760 321h.01M815 321h.01M861 321h.01M962 321h.01M980 321h.01M998 321h.01M1053 321h.01M1072 321h.01M1127 321h.01M1145 321h.01M1163 321h.01M1182 321h.01M1200 321h.01M9 330h.01M64 330h.01M82 330h.01M101 330h.01M192 330h.01M211 330h.01M302 330h.01M485 330h.01M568 330h.01M605 330h.01M0 339h.01M18 339h.01M27 339h.01M37 339h.01M46 339h.01M64 339h.01M73 339h.01M82 339h.01M110 339h.01M119 339h.01M275 339h.01M293 339h.01M366 339h.01M394 339h.01M440 339h.01M540 339h.01M550 339h.01M660 339h.01M742 339h.01M898 339h.01M962 339h.01M980 339h.01M998 339h.01M1053 339h.01M1072 339h.01M1090 339h.01M1108 339h.01M1127 339h.01M1145 339h.01M1163 339h.01M1182 339h.01M1200 339h.01M9 349h.01M55 349h.01M101 349h.01M183 349h.01M238 349h.01M266 349h.01M339 349h.01M431 349h.01M650 349h.01M705 349h.01M715 349h.01M852 349h.01M971 349h.01M998 349h.01M1044 349h.01M1053 349h.01M1136 349h.01M1145 349h.01M1173 349h.01M18 358h.01M27 358h.01M37 358h.01M64 358h.01M73 358h.01M82 358h.01M110 358h.01M256 358h.01M394 358h.01M458 358h.01M733 358h.01M861 358h.01M898 358h.01M953 358h.01M971 358h.01M989 358h.01M1044 358h.01M1118 358h.01M1136 358h.01M1145 358h.01M1173 358h.01M9 367h.01M18 367h.01M119 367h.01M183 367h.01M238 367h.01M247 367h.01M266 367h.01M376 367h.01M421 367h.01M467 367h.01M586 367h.01M916 367h.01M962 367h.01M980 367h.01M998 367h.01M1035 367h.01M1053 367h.01M1072 367h.01M1090 367h.01M1108 367h.01M1127 367h.01M1163 367h.01M1182 367h.01M1200 367h.01M211 376h.01M256 376h.01M302 376h.01M412 376h.01M421 376h.01M476 376h.01M485 376h.01M586 376h.01M660 376h.01M715 376h.01M724 376h.01M733 376h.01M879 376h.01M0 385h.01M64 385h.01M101 385h.01M128 385h.01M165 385h.01M247 385h.01M275 385h.01M302 385h.01M311 385h.01M403 385h.01M495 385h.01M550 385h.01M586 385h.01M595 385h.01M623 385h.01M669 385h.01M678 385h.01M687 385h.01M715 385h.01M724 385h.01M788 385h.01M861 385h.01M916 385h.01M1063 385h.01M1099 385h.01M1154 385h.01M37 394h.01M156 394h.01M192 394h.01M202 394h.01M211 394h.01M302 394h.01M366 394h.01M403 394h.01M577 394h.01M605 394h.01M614 394h.01M641 394h.01M715 394h.01M834 394h.01M843 394h.01M861 394h.01M953 394h.01M989 394h.01M1017 394h.01M1044 394h.01M1090 394h.01M1154 394h.01M0 404h.01M9 404h.01M18 404h.01M27 404h.01M37 404h.01M46 404h.01M55 404h.01M92 404h.01M119 404h.01M128 404h.01M247 404h.01M311 404h.01M339 404h.01M376 404h.01M449 404h.01M476 404h.01M586 404h.01M623 404h.01M650 404h.01M660 404h.01M669 404h.01M678 404h.01M742 404h.01M751 404h.01M806 404h.01M934 404h.01M944 404h.01M971 404h.01M980 404h.01M989 404h.01M1008 404h.01M1026 404h.01M1072 404h.01M1145 404h.01M1182 404h.01M1191 404h.01M46 413h.01M73 413h.01M101 413h.01M110 413h.01M183 413h.01M412 413h.01M550 413h.01M586 413h.01M614 413h.01M705 413h.01M843 413h.01M889 413h.01M916 413h.01M925 413h.01M944 413h.01M1017 413h.01M1118 413h.01M174 422h.01M238 422h.01M266 422h.01M330 422h.01M348 422h.01M440 422h.01M504 422h.01M550 422h.01M577 422h.01M605 422h.01M614 422h.01M641 422h.01M705 422h.01M715 422h.01M916 422h.01M944 422h.01M971 422h.01M998 422h.01M1008 422h.01M1035 422h.01M1072 422h.01M1108 422h.01M1127 422h.01M1136 422h.01M1173 422h.01M1200 422h.01M0 431h.01M211 431h.01M293 431h.01M357 431h.01M449 431h.01M495 431h.01M605 431h.01M614 431h.01M641 431h.01M889 431h.01M1017 431h.01M1118 431h.01M101 440h.01M311 440h.01M376 440h.01M412 440h.01M440 440h.01M467 440h.01M476 440h.01M540 440h.01M586 440h.01M595 440h.01M733 440h.01M824 440h.01M843 440h.01M916 440h.01M944 440h.01M971 440h.01M1008 440h.01M1026 440h.01M1035 440h.01M1072 440h.01M1108 440h.01M1127 440h.01M1136 440h.01M1173 440h.01M64 449h.01M101 449h.01M110 449h.01M137 449h.01M147 449h.01M247 449h.01M293 449h.01M366 449h.01M467 449h.01M476 449h.01M495 449h.01M559 449h.01M870 449h.01M953 449h.01M971 449h.01M980 449h.01M989 449h.01M1026 449h.01M1044 449h.01M1053 449h.01M1081 449h.01M1090 449h.01M1145 449h.01M1154 449h.01M1182 449h.01M1191 449h.01M82 459h.01M110 459h.01M119 459h.01M128 459h.01M137 459h.01M147 459h.01M202 459h.01M211 459h.01M302 459h.01M311 459h.01M321 459h.01M330 459h.01M339 459h.01M366 459h.01M376 459h.01M632 459h.01M650 459h.01M687 459h.01M696 459h.01M971 459h.01M980 459h.01M1008 459h.01M1026 459h.01M1072 459h.01M1108 459h.01M1127 459h.01M1145 459h.01M1173 459h.01M1182 459h.01M1191 459h.01M101 468h.01M147 468h.01M220 468h.01M229 468h.01M238 468h.01M293 468h.01M330 468h.01M339 468h.01M403 468h.01M531 468h.01M559 468h.01M586 468h.01M595 468h.01M724 468h.01M733 468h.01M760 468h.01M806 468h.01M824 468h.01M925 468h.01M934 468h.01M944 468h.01M953 468h.01M980 468h.01M989 468h.01M1044 468h.01M1053 468h.01M1081 468h.01M1090 468h.01M1145 468h.01M1154 468h.01M1182 468h.01M1191 468h.01M137 477h.01M147 477h.01M156 477h.01M357 477h.01M485 477h.01M696 477h.01M1118 477h.01M18 486h.01M27 486h.01M37 486h.01M46 486h.01M55 486h.01M192 486h.01M256 486h.01M302 486h.01M311 486h.01M321 486h.01M385 486h.01M540 486h.01M705 486h.01M944 486h.01M953 486h.01M971 486h.01M980 486h.01M989 486h.01M1044 486h.01M1053 486h.01M1081 486h.01M1090 486h.01M1145 486h.01M1182 486h.01M1191 486h.01M174 495h.01M293 495h.01M339 495h.01M531 495h.01M550 495h.01M605 495h.01M769 495h.01M916 495h.01M46 504h.01M55 504h.01M174 504h.01M192 504h.01M202 504h.01M293 504h.01M302 504h.01M330 504h.01M376 504h.01M403 504h.01M412 504h.01M485 504h.01M540 504h.01M605 504h.01M769 504h.01M779 504h.01M944 504h.01M953 504h.01M980 504h.01M989 504h.01M1044 504h.01M1081 504h.01M1090 504h.01M1145 504h.01M1154 504h.01M1182 504h.01M1191 504h.01M174 513h.01M211 513h.01M376 513h.01M403 513h.01M705 513h.01M715 513h.01M834 513h.01M953 513h.01M971 513h.01M980 513h.01M989 513h.01M1044 513h.01M1053 513h.01M1081 513h.01M1108 513h.01M1127 513h.01M1145 513h.01M1154 513h.01M1173 513h.01M0 523h.01M9 523h.01M18 523h.01M27 523h.01M73 523h.01M403 523h.01M412 523h.01M440 523h.01M495 523h.01M531 523h.01M577 523h.01M678 523h.01M751 523h.01M1017 523h.01M1063 523h.01M1173 523h.01M1191 523h.01M147 532h.01M156 532h.01M174 532h.01M247 532h.01M284 532h.01M330 532h.01M339 532h.01M366 532h.01M376 532h.01M440 532h.01M522 532h.01M614 532h.01M660 532h.01M715 532h.01M724 532h.01M733 532h.01M769 532h.01M870 532h.01M953 532h.01M971 532h.01M1017 532h.01M1035 532h.01M1044 532h.01M1108 532h.01M1127 532h.01M1173 532h.01M0 541h.01M37 541h.01M220 541h.01M229 541h.01M275 541h.01M284 541h.01M302 541h.01M440 541h.01M687 541h.01M705 541h.01M769 541h.01M806 541h.01M834 541h.01M879 541h.01M916 541h.01M953 541h.01M971 541h.01M1035 541h.01M1044 541h.01M1063 541h.01M1099 541h.01M1108 541h.01M1173 541h.01M1191 541h.01M73 550h.01M119 550h.01M128 550h.01M137 550h.01M147 550h.01M156 550h.01M183 550h.01M211 550h.01M220 550h.01M311 550h.01M339 550h.01M650 550h.01M779 550h.01M788 550h.01M834 550h.01M843 550h.01M852 550h.01M879 550h.01M953 550h.01M971 550h.01M998 550h.01M1017 550h.01M1035 550h.01M1044 550h.01M1081 550h.01M1108 550h.01M1127 550h.01M1173 550h.01M55 559h.01M192 559h.01M202 559h.01M211 559h.01M247 559h.01M275 559h.01M302 559h.01M495 559h.01M540 559h.01M632 559h.01M669 559h.01M678 559h.01M742 559h.01M760 559h.01M824 559h.01M953 559h.01M971 559h.01M1035 559h.01M1044 559h.01M1063 559h.01M1081 559h.01M1099 559h.01M1108 559h.01M1173 559h.01M1191 559h.01M18 568h.01M27 568h.01M37 568h.01M46 568h.01M192 568h.01M247 568h.01M513 568h.01M540 568h.01M559 568h.01M568 568h.01M614 568h.01M632 568h.01M678 568h.01M815 568h.01M953 568h.01M971 568h.01M998 568h.01M1035 568h.01M1044 568h.01M1081 568h.01M1099 568h.01M1108 568h.01M1127 568h.01M82 578h.01M92 578h.01M101 578h.01M137 578h.01M247 578h.01M311 578h.01M467 578h.01M522 578h.01M577 578h.01M632 578h.01M769 578h.01M815 578h.01M861 578h.01M953 578h.01M971 578h.01M998 578h.01M1035 578h.01M1044 578h.01M1063 578h.01M1081 578h.01M1099 578h.01M1108 578h.01M1127 578h.01M1191 578h.01M9 587h.01M64 587h.01M137 587h.01M147 587h.01M266 587h.01M421 587h.01M431 587h.01M595 587h.01M641 587h.01M650 587h.01M660 587h.01M705 587h.01M870 587h.01M944 587h.01M953 587h.01M971 587h.01M998 587h.01M1017 587h.01M1035 587h.01M1044 587h.01M1081 587h.01M1108 587h.01M1127 587h.01M1173 587h.01M165 596h.01M302 596h.01M357 596h.01M366 596h.01M504 596h.01M540 596h.01M632 596h.01M724 596h.01M733 596h.01M769 596h.01M953 596h.01M1017 596h.01M1063 596h.01M1173 596h.01M1191 596h.01M18 605h.01M27 605h.01M92 605h.01M101 605h.01M110 605h.01M119 605h.01M128 605h.01M202 605h.01M211 605h.01M550 605h.01M568 605h.01M769 605h.01M779 605h.01M889 605h.01M944 605h.01M953 605h.01M971 605h.01M989 605h.01M1017 605h.01M1044 605h.01M1081 605h.01M1099 605h.01M1173 605h.01M1191 605h.01M165 614h.01M174 614h.01M238 614h.01M275 614h.01M293 614h.01M330 614h.01M385 614h.01M421 614h.01M431 614h.01M467 614h.01M513 614h.01M522 614h.01M531 614h.01M568 614h.01M577 614h.01M760 614h.01M852 614h.01M861 614h.01M898 614h.01M907 614h.01M934 614h.01M944 614h.01M953 614h.01M1044 614h.01M1063 614h.01M64 623h.01M73 623h.01M92 623h.01M101 623h.01M229 623h.01M247 623h.01M311 623h.01M321 623h.01M330 623h.01M513 623h.01M577 623h.01M623 623h.01M632 623h.01M660 623h.01M715 623h.01M724 623h.01M733 623h.01M861 623h.01M889 623h.01M898 623h.01M934 623h.01M944 623h.01M1008 623h.01M1026 623h.01M1081 623h.01M1099 623h.01M1118 623h.01M1136 623h.01M1154 623h.01M1173 623h.01M1182 623h.01M1191 623h.01M1200 623h.01M64 633h.01M137 633h.01M147 633h.01M238 633h.01M293 633h.01M357 633h.01M366 633h.01M412 633h.01M421 633h.01M431 633h.01M449 633h.01M632 633h.01M687 633h.01M696 633h.01M705 633h.01M769 633h.01M815 633h.01M824 633h.01M861 633h.01M889 633h.01M962 633h.01M1017 633h.01M1090 633h.01M1127 633h.01M1145 633h.01M1191 633h.01M1200 633h.01M46 642h.01M55 642h.01M192 642h.01M339 642h.01M449 642h.01M550 642h.01M696 642h.01M705 642h.01M715 642h.01M879 642h.01M1063 642h.01M101 651h.01M147 651h.01M156 651h.01M202 651h.01M339 651h.01M421 651h.01M431 651h.01M440 651h.01M449 651h.01M531 651h.01M568 651h.01M614 651h.01M641 651h.01M944 651h.01M953 651h.01M1044 651h.01M1063 651h.01" stroke="currentColor" stroke-opacity="0.52" stroke-width="3.80" stroke-linecap="round" fill="none"/>
  <path d="M467 28h.01M586 28h.01M696 28h.01M724 28h.01M797 28h.01M806 28h.01M815 28h.01M861 28h.01M916 28h.01M925 28h.01M989 28h.01M1044 28h.01M1053 28h.01M1090 28h.01M1099 28h.01M495 37h.01M504 37h.01M568 37h.01M843 37h.01M852 37h.01M898 37h.01M925 37h.01M458 46h.01M550 46h.01M559 46h.01M595 46h.01M605 46h.01M614 46h.01M623 46h.01M632 46h.01M660 46h.01M669 46h.01M678 46h.01M705 46h.01M806 46h.01M815 46h.01M852 46h.01M861 46h.01M898 46h.01M916 46h.01M953 46h.01M989 46h.01M1008 46h.01M1026 46h.01M1035 46h.01M1053 46h.01M1072 46h.01M1090 46h.01M1099 46h.01M37 55h.01M504 55h.01M540 55h.01M669 55h.01M678 55h.01M687 55h.01M705 55h.01M724 55h.01M779 55h.01M861 55h.01M898 55h.01M907 55h.01M540 65h.01M568 65h.01M577 65h.01M614 65h.01M705 65h.01M742 65h.01M779 65h.01M861 65h.01M925 65h.01M934 65h.01M944 65h.01M1145 65h.01M1191 65h.01M458 74h.01M467 74h.01M586 74h.01M595 74h.01M614 74h.01M641 74h.01M751 74h.01M769 74h.01M815 74h.01M879 74h.01M916 74h.01M989 74h.01M1026 74h.01M1044 74h.01M1053 74h.01M1072 74h.01M1090 74h.01M1099 74h.01M1173 74h.01M37 83h.01M485 83h.01M513 83h.01M641 83h.01M742 83h.01M806 83h.01M889 83h.01M916 83h.01M458 92h.01M678 92h.01M715 92h.01M769 92h.01M889 92h.01M989 92h.01M1044 92h.01M1053 92h.01M1090 92h.01M1099 92h.01M55 101h.01M183 101h.01M238 101h.01M412 101h.01M421 101h.01M449 101h.01M467 101h.01M476 101h.01M495 101h.01M504 101h.01M540 101h.01M559 101h.01M605 101h.01M660 101h.01M687 101h.01M696 101h.01M705 101h.01M724 101h.01M815 101h.01M824 101h.01M27 110h.01M37 110h.01M46 110h.01M147 110h.01M183 110h.01M238 110h.01M266 110h.01M412 110h.01M421 110h.01M495 110h.01M504 110h.01M715 110h.01M779 110h.01M788 110h.01M815 110h.01M824 110h.01M852 110h.01M889 110h.01M962 110h.01M1017 110h.01M1063 110h.01M1118 110h.01M1191 110h.01M92 120h.01M147 120h.01M165 120h.01M174 120h.01M183 120h.01M202 120h.01M238 120h.01M247 120h.01M284 120h.01M302 120h.01M330 120h.01M348 120h.01M376 120h.01M385 120h.01M412 120h.01M421 120h.01M449 120h.01M495 120h.01M513 120h.01M696 120h.01M715 120h.01M742 120h.01M751 120h.01M779 120h.01M806 120h.01M843 120h.01M852 120h.01M861 120h.01M879 120h.01M1053 120h.01M1099 120h.01M1118 120h.01M1145 120h.01M1191 120h.01M1200 120h.01M92 129h.01M202 129h.01M238 129h.01M275 129h.01M284 129h.01M348 129h.01M357 129h.01M476 129h.01M522 129h.01M531 129h.01M696 129h.01M797 129h.01M870 129h.01M55 138h.01M92 138h.01M119 138h.01M165 138h.01M229 138h.01M376 138h.01M431 138h.01M550 138h.01M559 138h.01M595 138h.01M614 138h.01M696 138h.01M715 138h.01M724 138h.01M733 138h.01M870 138h.01M889 138h.01M953 138h.01M971 138h.01M980 138h.01M1008 138h.01M1026 138h.01M1035 138h.01M1053 138h.01M1072 138h.01M1108 138h.01M1127 138h.01M1136 138h.01M1145 138h.01M1154 138h.01M1173 138h.01M110 147h.01M302 147h.01M376 147h.01M403 147h.01M412 147h.01M431 147h.01M568 147h.01M586 147h.01M650 147h.01M678 147h.01M696 147h.01M715 147h.01M870 147h.01M962 147h.01M1017 147h.01M1063 147h.01M1099 147h.01M1118 147h.01M1191 147h.01M1200 147h.01M229 156h.01M238 156h.01M321 156h.01M366 156h.01M412 156h.01M586 156h.01M660 156h.01M696 156h.01M843 156h.01M962 156h.01M37 165h.01M46 165h.01M110 165h.01M165 165h.01M202 165h.01M220 165h.01M266 165h.01M348 165h.01M366 165h.01M421 165h.01M449 165h.01M467 165h.01M522 165h.01M540 165h.01M623 165h.01M632 165h.01M687 165h.01M696 165h.01M779 165h.01M788 165h.01M797 165h.01M806 165h.01M962 165h.01M1017 165h.01M1063 165h.01M1099 165h.01M1118 165h.01M1191 165h.01M1200 165h.01M55 175h.01M110 175h.01M137 175h.01M192 175h.01M220 175h.01M238 175h.01M266 175h.01M293 175h.01M302 175h.01M311 175h.01M321 175h.01M376 175h.01M403 175h.01M431 175h.01M467 175h.01M476 175h.01M485 175h.01M540 175h.01M568 175h.01M577 175h.01M586 175h.01M595 175h.01M605 175h.01M641 175h.01M650 175h.01M687 175h.01M696 175h.01M742 175h.01M751 175h.01M797 175h.01M843 175h.01M852 175h.01M165 184h.01M174 184h.01M247 184h.01M348 184h.01M421 184h.01M513 184h.01M540 184h.01M595 184h.01M650 184h.01M660 184h.01M696 184h.01M733 184h.01M742 184h.01M751 184h.01M760 184h.01M797 184h.01M806 184h.01M980 184h.01M1017 184h.01M1053 184h.01M1063 184h.01M1099 184h.01M1118 184h.01M1145 184h.01M1191 184h.01M1200 184h.01M55 193h.01M147 193h.01M156 193h.01M183 193h.01M229 193h.01M238 193h.01M247 193h.01M275 193h.01M421 193h.01M431 193h.01M449 193h.01M458 193h.01M476 193h.01M623 193h.01M632 193h.01M641 193h.01M650 193h.01M660 193h.01M797 193h.01M925 193h.01M934 193h.01M962 193h.01M1017 193h.01M1063 193h.01M1118 193h.01M1191 193h.01M119 202h.01M137 202h.01M220 202h.01M266 202h.01M467 202h.01M540 202h.01M586 202h.01M715 202h.01M751 202h.01M760 202h.01M779 202h.01M962 202h.01M55 211h.01M110 211h.01M147 211h.01M156 211h.01M165 211h.01M174 211h.01M220 211h.01M229 211h.01M330 211h.01M440 211h.01M449 211h.01M458 211h.01M724 211h.01M815 211h.01M870 211h.01M916 211h.01M953 211h.01M971 211h.01M980 211h.01M1008 211h.01M1053 211h.01M1099 211h.01M1118 211h.01M1145 211h.01M1154 211h.01M1191 211h.01M1200 211h.01M55 220h.01M110 220h.01M311 220h.01M339 220h.01M366 220h.01M531 220h.01M568 220h.01M595 220h.01M660 220h.01M696 220h.01M715 220h.01M769 220h.01M779 220h.01M806 220h.01M898 220h.01M962 220h.01M119 230h.01M165 230h.01M275 230h.01M284 230h.01M339 230h.01M348 230h.01M440 230h.01M449 230h.01M476 230h.01M531 230h.01M540 230h.01M715 230h.01M934 230h.01M962 230h.01M1017 230h.01M1063 230h.01M202 239h.01M293 239h.01M394 239h.01M449 239h.01M467 239h.01M476 239h.01M540 239h.01M568 239h.01M669 239h.01M742 239h.01M751 239h.01M852 239h.01M971 239h.01M980 239h.01M1035 239h.01M1053 239h.01M1063 239h.01M1072 239h.01M1090 239h.01M1108 239h.01M1118 239h.01M1127 239h.01M1145 239h.01M1163 239h.01M1200 239h.01M55 248h.01M92 248h.01M119 248h.01M174 248h.01M238 248h.01M247 248h.01M385 248h.01M568 248h.01M669 248h.01M806 248h.01M815 248h.01M834 248h.01M861 248h.01M870 248h.01M55 257h.01M92 257h.01M110 257h.01M293 257h.01M476 257h.01M485 257h.01M550 257h.01M559 257h.01M577 257h.01M586 257h.01M595 257h.01M605 257h.01M696 257h.01M715 257h.01M806 257h.01M815 257h.01M119 266h.01M247 266h.01M275 266h.01M412 266h.01M495 266h.01M504 266h.01M742 266h.01M806 266h.01M815 266h.01M907 266h.01M962 266h.01M980 266h.01M998 266h.01M1035 266h.01M1053 266h.01M1072 266h.01M1108 266h.01M1127 266h.01M1163 266h.01M1182 266h.01M1200 266h.01M0 275h.01M18 275h.01M27 275h.01M137 275h.01M147 275h.01M156 275h.01M211 275h.01M275 275h.01M321 275h.01M330 275h.01M476 275h.01M641 275h.01M742 275h.01M843 275h.01M870 275h.01M907 275h.01M980 275h.01M1035 275h.01M1090 275h.01M1108 275h.01M1127 275h.01M110 284h.01M119 284h.01M156 284h.01M183 284h.01M266 284h.01M275 284h.01M302 284h.01M366 284h.01M440 284h.01M449 284h.01M458 284h.01M467 284h.01M476 284h.01M595 284h.01M641 284h.01M705 284h.01M870 284h.01M55 294h.01M92 294h.01M119 294h.01M165 294h.01M284 294h.01M339 294h.01M376 294h.01M394 294h.01M403 294h.01M476 294h.01M504 294h.01M513 294h.01M522 294h.01M577 294h.01M614 294h.01M623 294h.01M678 294h.01M705 294h.01M742 294h.01M806 294h.01M852 294h.01M925 294h.01M944 294h.01M0 303h.01M27 303h.01M37 303h.01M46 303h.01M101 303h.01M174 303h.01M192 303h.01M431 303h.01M586 303h.01M660 303h.01M678 303h.01M705 303h.01M733 303h.01M742 303h.01M751 303h.01M779 303h.01M806 303h.01M824 303h.01M889 303h.01M925 303h.01M1017 303h.01M119 312h.01M137 312h.01M165 312h.01M192 312h.01M202 312h.01M211 312h.01M293 312h.01M311 312h.01M449 312h.01M540 312h.01M550 312h.01M559 312h.01M641 312h.01M715 312h.01M779 312h.01M806 312h.01M815 312h.01M898 312h.01M925 312h.01M980 312h.01M1035 312h.01M1090 312h.01M1108 312h.01M1127 312h.01M1163 312h.01M1200 312h.01M92 321h.01M110 321h.01M202 321h.01M238 321h.01M403 321h.01M412 321h.01M559 321h.01M595 321h.01M650 321h.01M660 321h.01M751 321h.01M944 321h.01M1017 321h.01M1035 321h.01M1090 321h.01M1108 321h.01M0 330h.01M18 330h.01M27 330h.01M37 330h.01M110 330h.01M119 330h.01M202 330h.01M284 330h.01M458 330h.01M467 330h.01M476 330h.01M522 330h.01M678 330h.01M696 330h.01M742 330h.01M870 330h.01M9 339h.01M220 339h.01M229 339h.01M238 339h.01M247 339h.01M266 339h.01M339 339h.01M348 339h.01M458 339h.01M485 339h.01M513 339h.01M522 339h.01M531 339h.01M559 339h.01M641 339h.01M669 339h.01M760 339h.01M815 339h.01M824 339h.01M834 339h.01M843 339h.01M852 339h.01M861 339h.01M934 339h.01M1017 339h.01M1035 339h.01M92 349h.01M110 349h.01M119 349h.01M366 349h.01M440 349h.01M467 349h.01M540 349h.01M641 349h.01M843 349h.01M870 349h.01M898 349h.01M925 349h.01M944 349h.01M962 349h.01M980 349h.01M1035 349h.01M1072 349h.01M1090 349h.01M1108 349h.01M1127 349h.01M1163 349h.01M1182 349h.01M1200 349h.01M0 358h.01M46 358h.01M119 358h.01M183 358h.01M220 358h.01M229 358h.01M376 358h.01M476 358h.01M559 358h.01M641 358h.01M650 358h.01M797 358h.01M925 358h.01M934 358h.01M962 358h.01M980 358h.01M998 358h.01M1035 358h.01M1053 358h.01M1072 358h.01M1108 358h.01M1127 358h.01M1163 358h.01M1182 358h.01M1200 358h.01M0 367h.01M27 367h.01M46 367h.01M64 367h.01M82 367h.01M92 367h.01M101 367h.01M137 367h.01M147 367h.01M156 367h.01M229 367h.01M284 367h.01M321 367h.01M330 367h.01M385 367h.01M403 367h.01M412 367h.01M458 367h.01M540 367h.01M550 367h.01M724 367h.01M751 367h.01M760 367h.01M879 367h.01M907 367h.01M925 367h.01M934 367h.01M1017 367h.01M0 376h.01M27 376h.01M37 376h.01M55 376h.01M64 376h.01M101 376h.01M156 376h.01M165 376h.01M174 376h.01M183 376h.01M192 376h.01M202 376h.01M247 376h.01M311 376h.01M339 376h.01M357 376h.01M366 376h.01M403 376h.01M431 376h.01M531 376h.01M577 376h.01M595 376h.01M678 376h.01M705 376h.01M760 376h.01M769 376h.01M870 376h.01M889 376h.01M9 385h.01M46 385h.01M55 385h.01M73 385h.01M82 385h.01M92 385h.01M110 385h.01M119 385h.01M137 385h.01M147 385h.01M284 385h.01M293 385h.01M366 385h.01M385 385h.01M440 385h.01M467 385h.01M504 385h.01M513 385h.01M559 385h.01M641 385h.01M650 385h.01M705 385h.01M733 385h.01M797 385h.01M907 385h.01M953 385h.01M962 385h.01M971 385h.01M989 385h.01M998 385h.01M1008 385h.01M1026 385h.01M1081 385h.01M1136 385h.01M1145 385h.01M1163 385h.01M1173 385h.01M1191 385h.01M1200 385h.01M27 394h.01M137 394h.01M147 394h.01M165 394h.01M311 394h.01M376 394h.01M440 394h.01M467 394h.01M504 394h.01M568 394h.01M705 394h.01M742 394h.01M806 394h.01M824 394h.01M1118 394h.01M202 404h.01M266 404h.01M275 404h.01M284 404h.01M302 404h.01M412 404h.01M540 404h.01M550 404h.01M595 404h.01M641 404h.01M687 404h.01M724 404h.01M733 404h.01M779 404h.01M815 404h.01M852 404h.01M870 404h.01M879 404h.01M953 404h.01M1044 404h.01M1053 404h.01M1081 404h.01M1090 404h.01M1154 404h.01M202 413h.01M211 413h.01M229 413h.01M302 413h.01M357 413h.01M431 413h.01M467 413h.01M577 413h.01M687 413h.01M715 413h.01M751 413h.01M760 413h.01M769 413h.01M834 413h.01M870 413h.01M879 413h.01M907 413h.01M27 422h.01M92 422h.01M101 422h.01M147 422h.01M156 422h.01M394 422h.01M467 422h.01M568 422h.01M660 422h.01M669 422h.01M769 422h.01M843 422h.01M852 422h.01M861 422h.01M907 422h.01M953 422h.01M980 422h.01M989 422h.01M1026 422h.01M1044 422h.01M1145 422h.01M1182 422h.01M1191 422h.01M55 431h.01M92 431h.01M165 431h.01M202 431h.01M256 431h.01M275 431h.01M330 431h.01M339 431h.01M348 431h.01M366 431h.01M376 431h.01M385 431h.01M577 431h.01M650 431h.01M742 431h.01M944 431h.01M0 440h.01M9 440h.01M18 440h.01M27 440h.01M110 440h.01M119 440h.01M128 440h.01M137 440h.01M147 440h.01M156 440h.01M247 440h.01M266 440h.01M302 440h.01M357 440h.01M403 440h.01M550 440h.01M605 440h.01M806 440h.01M852 440h.01M861 440h.01M953 440h.01M980 440h.01M989 440h.01M1044 440h.01M1053 440h.01M1081 440h.01M1090 440h.01M1145 440h.01M1154 440h.01M1182 440h.01M1191 440h.01M202 449h.01M348 449h.01M376 449h.01M440 449h.01M449 449h.01M485 449h.01M614 449h.01M797 449h.01M815 449h.01M843 449h.01M898 449h.01M1017 449h.01M1118 449h.01M64 459h.01M73 459h.01M192 459h.01M220 459h.01M229 459h.01M238 459h.01M247 459h.01M348 459h.01M357 459h.01M431 459h.01M485 459h.01M513 459h.01M705 459h.01M769 459h.01M788 459h.01M797 459h.01M806 459h.01M815 459h.01M916 459h.01M953 459h.01M989 459h.01M1044 459h.01M1053 459h.01M1081 459h.01M1090 459h.01M1154 459h.01M92 468h.01M137 468h.01M192 468h.01M247 468h.01M302 468h.01M348 468h.01M449 468h.01M522 468h.01M540 468h.01M550 468h.01M577 468h.01M678 468h.01M687 468h.01M742 468h.01M751 468h.01M797 468h.01M815 468h.01M1017 468h.01M1118 468h.01M165 477h.01M220 477h.01M229 477h.01M302 477h.01M321 477h.01M440 477h.01M476 477h.01M540 477h.01M568 477h.01M614 477h.01M632 477h.01M715 477h.01M733 477h.01M742 477h.01M797 477h.01M806 477h.01M834 477h.01M898 477h.01M137 486h.01M147 486h.01M183 486h.01M348 486h.01M403 486h.01M412 486h.01M421 486h.01M431 486h.01M467 486h.01M485 486h.01M495 486h.01M550 486h.01M595 486h.01M614 486h.01M687 486h.01M715 486h.01M769 486h.01M815 486h.01M879 486h.01M898 486h.01M916 486h.01M934 486h.01M1017 486h.01M1154 486h.01M137 495h.01M156 495h.01M165 495h.01M247 495h.01M275 495h.01M376 495h.01M467 495h.01M577 495h.01M641 495h.01M678 495h.01M696 495h.01M715 495h.01M806 495h.01M843 495h.01M870 495h.01M0 504h.01M64 504h.01M73 504h.01M82 504h.01M128 504h.01M266 504h.01M311 504h.01M321 504h.01M467 504h.01M495 504h.01M632 504h.01M660 504h.01M843 504h.01M852 504h.01M861 504h.01M916 504h.01M934 504h.01M1017 504h.01M1053 504h.01M82 513h.01M147 513h.01M183 513h.01M229 513h.01M238 513h.01M412 513h.01M476 513h.01M485 513h.01M540 513h.01M577 513h.01M742 513h.01M751 513h.01M788 513h.01M806 513h.01M815 513h.01M1017 513h.01M1191 513h.01M37 523h.01M46 523h.01M64 523h.01M101 523h.01M147 523h.01M174 523h.01M238 523h.01M247 523h.01M266 523h.01M330 523h.01M540 523h.01M550 523h.01M559 523h.01M568 523h.01M742 523h.01M797 523h.01M806 523h.01M852 523h.01M861 523h.01M879 523h.01M916 523h.01M37 532h.01M64 532h.01M101 532h.01M165 532h.01M275 532h.01M293 532h.01M394 532h.01M403 532h.01M431 532h.01M504 532h.01M540 532h.01M586 532h.01M605 532h.01M623 532h.01M696 532h.01M705 532h.01M760 532h.01M843 532h.01M916 532h.01M1063 532h.01M1191 532h.01M46 541h.01M64 541h.01M211 541h.01M238 541h.01M266 541h.01M293 541h.01M339 541h.01M385 541h.01M403 541h.01M412 541h.01M431 541h.01M449 541h.01M623 541h.01M650 541h.01M733 541h.01M742 541h.01M779 541h.01M843 541h.01M1017 541h.01M1081 541h.01M293 550h.01M302 550h.01M357 550h.01M412 550h.01M513 550h.01M623 550h.01M641 550h.01M660 550h.01M687 550h.01M724 550h.01M751 550h.01M769 550h.01M861 550h.01M870 550h.01M1063 550h.01M1191 550h.01M238 559h.01M266 559h.01M366 559h.01M431 559h.01M485 559h.01M504 559h.01M513 559h.01M550 559h.01M568 559h.01M605 559h.01M614 559h.01M815 559h.01M861 559h.01M1017 559h.01M55 568h.01M101 568h.01M110 568h.01M202 568h.01M211 568h.01M238 568h.01M284 568h.01M412 568h.01M440 568h.01M531 568h.01M577 568h.01M705 568h.01M760 568h.01M797 568h.01M834 568h.01M1017 568h.01M1063 568h.01M1173 568h.01M1191 568h.01M0 578h.01M147 578h.01M183 578h.01M238 578h.01M256 578h.01M421 578h.01M440 578h.01M449 578h.01M476 578h.01M495 578h.01M504 578h.01M513 578h.01M568 578h.01M614 578h.01M641 578h.01M687 578h.01M705 578h.01M715 578h.01M898 578h.01M907 578h.01M1017 578h.01M1173 578h.01M0 587h.01M73 587h.01M82 587h.01M119 587h.01M128 587h.01M174 587h.01M183 587h.01M202 587h.01M220 587h.01M229 587h.01M238 587h.01M247 587h.01M256 587h.01M293 587h.01M302 587h.01M504 587h.01M513 587h.01M568 587h.01M577 587h.01M669 587h.01M724 587h.01M733 587h.01M742 587h.01M751 587h.01M760 587h.01M843 587h.01M852 587h.01M861 587h.01M898 587h.01M934 587h.01M1063 587h.01M1191 587h.01M202 596h.01M211 596h.01M339 596h.01M467 596h.01M485 596h.01M806 596h.01M815 596h.01M852 596h.01M870 596h.01M37 605h.01M46 605h.01M73 605h.01M174 605h.01M183 605h.01M293 605h.01M321 605h.01M376 605h.01M394 605h.01M458 605h.01M485 605h.01M559 605h.01M623 605h.01M843 605h.01M879 605h.01M934 605h.01M1063 605h.01M64 614h.01M211 614h.01M403 614h.01M476 614h.01M550 614h.01M605 614h.01M614 614h.01M632 614h.01M660 614h.01M678 614h.01M705 614h.01M715 614h.01M733 614h.01M742 614h.01M769 614h.01M806 614h.01M834 614h.01M843 614h.01M916 614h.01M128 623h.01M202 623h.01M211 623h.01M302 623h.01M394 623h.01M440 623h.01M568 623h.01M678 623h.01M760 623h.01M815 623h.01M834 623h.01M907 623h.01M916 623h.01M925 623h.01M953 623h.01M971 623h.01M989 623h.01M1044 623h.01M55 633h.01M101 633h.01M110 633h.01M128 633h.01M302 633h.01M311 633h.01M339 633h.01M348 633h.01M376 633h.01M440 633h.01M540 633h.01M550 633h.01M559 633h.01M788 633h.01M870 633h.01M879 633h.01M953 633h.01M971 633h.01M989 633h.01M1008 633h.01M1026 633h.01M1081 633h.01M1099 633h.01M1118 633h.01M1136 633h.01M1154 633h.01M1173 633h.01M1182 633h.01M92 642h.01M119 642h.01M348 642h.01M376 642h.01M504 642h.01M623 642h.01M650 642h.01M669 642h.01M724 642h.01M742 642h.01M751 642h.01M769 642h.01M779 642h.01M797 642h.01M843 642h.01M852 642h.01M898 642h.01M46 651h.01M92 651h.01M165 651h.01M192 651h.01M211 651h.01M348 651h.01M385 651h.01M394 651h.01M458 651h.01M495 651h.01M522 651h.01M540 651h.01M550 651h.01M577 651h.01M605 651h.01M687 651h.01M715 651h.01M797 651h.01M806 651h.01M861 651h.01M870 651h.01M934 651h.01" stroke="currentColor" stroke-opacity="0.58" stroke-width="4.70" stroke-linecap="round" fill="none"/>
  <path d="M458 28h.01M568 28h.01M577 28h.01M687 28h.01M769 28h.01M824 28h.01M834 28h.01M944 28h.01M1145 28h.01M1191 28h.01M687 37h.01M724 37h.01M779 37h.01M824 37h.01M834 37h.01M907 37h.01M916 37h.01M934 37h.01M687 46h.01M715 46h.01M724 46h.01M797 46h.01M824 46h.01M834 46h.01M843 46h.01M907 46h.01M944 46h.01M1044 46h.01M513 55h.01M550 55h.01M559 55h.01M595 55h.01M605 55h.01M614 55h.01M623 55h.01M632 55h.01M715 55h.01M797 55h.01M806 55h.01M815 55h.01M824 55h.01M834 55h.01M843 55h.01M852 55h.01M550 65h.01M559 65h.01M586 65h.01M605 65h.01M623 65h.01M632 65h.01M660 65h.01M669 65h.01M696 65h.01M788 65h.01M797 65h.01M806 65h.01M815 65h.01M824 65h.01M834 65h.01M843 65h.01M852 65h.01M513 74h.01M623 74h.01M632 74h.01M687 74h.01M779 74h.01M788 74h.01M806 74h.01M925 74h.01M495 83h.01M504 83h.01M650 83h.01M660 83h.01M669 83h.01M724 83h.01M733 83h.01M760 83h.01M769 83h.01M779 83h.01M788 83h.01M797 83h.01M513 92h.01M605 92h.01M623 92h.01M660 92h.01M669 92h.01M724 92h.01M733 92h.01M779 92h.01M788 92h.01M916 92h.01M1145 92h.01M1191 92h.01M458 101h.01M513 101h.01M550 101h.01M586 101h.01M715 101h.01M733 101h.01M797 101h.01M806 101h.01M458 110h.01M540 110h.01M550 110h.01M595 110h.01M605 110h.01M696 110h.01M705 110h.01M797 110h.01M806 110h.01M861 110h.01M55 120h.01M119 120h.01M128 120h.01M156 120h.01M220 120h.01M229 120h.01M275 120h.01M293 120h.01M357 120h.01M366 120h.01M394 120h.01M403 120h.01M431 120h.01M440 120h.01M458 120h.01M467 120h.01M476 120h.01M504 120h.01M595 120h.01M705 120h.01M788 120h.01M797 120h.01M962 120h.01M1017 120h.01M1063 120h.01M110 129h.01M192 129h.01M220 129h.01M247 129h.01M256 129h.01M266 129h.01M540 129h.01M550 129h.01M559 129h.01M568 129h.01M577 129h.01M586 129h.01M595 129h.01M605 129h.01M705 129h.01M715 129h.01M724 129h.01M733 129h.01M879 129h.01M889 129h.01M174 138h.01M192 138h.01M238 138h.01M256 138h.01M568 138h.01M577 138h.01M586 138h.01M605 138h.01M678 138h.01M705 138h.01M879 138h.01M962 138h.01M1017 138h.01M1063 138h.01M1099 138h.01M1118 138h.01M1191 138h.01M1200 138h.01M55 147h.01M92 147h.01M183 147h.01M220 147h.01M238 147h.01M357 147h.01M421 147h.01M495 147h.01M522 147h.01M577 147h.01M660 147h.01M669 147h.01M705 147h.01M879 147h.01M889 147h.01M202 156h.01M247 156h.01M256 156h.01M284 156h.01M311 156h.01M376 156h.01M385 156h.01M403 156h.01M421 156h.01M852 156h.01M861 156h.01M898 156h.01M55 165h.01M92 165h.01M147 165h.01M156 165h.01M211 165h.01M229 165h.01M550 165h.01M559 165h.01M92 175h.01M147 175h.01M156 175h.01M165 175h.01M202 175h.01M211 175h.01M247 175h.01M256 175h.01M394 175h.01M458 175h.01M522 175h.01M550 175h.01M559 175h.01M806 175h.01M898 175h.01M119 184h.01M357 184h.01M431 184h.01M559 184h.01M568 184h.01M577 184h.01M586 184h.01M916 184h.01M962 184h.01M92 193h.01M110 193h.01M293 193h.01M394 193h.01M440 193h.01M504 193h.01M540 193h.01M550 193h.01M559 193h.01M568 193h.01M577 193h.01M586 193h.01M898 193h.01M147 202h.01M156 202h.01M183 202h.01M275 202h.01M394 202h.01M504 202h.01M513 202h.01M550 202h.01M559 202h.01M568 202h.01M577 202h.01M623 202h.01M632 202h.01M852 202h.01M916 202h.01M925 202h.01M934 202h.01M92 211h.01M192 211h.01M202 211h.01M211 211h.01M256 211h.01M266 211h.01M275 211h.01M284 211h.01M293 211h.01M302 211h.01M311 211h.01M321 211h.01M339 211h.01M348 211h.01M366 211h.01M394 211h.01M421 211h.01M431 211h.01M531 211h.01M540 211h.01M550 211h.01M559 211h.01M568 211h.01M577 211h.01M586 211h.01M623 211h.01M632 211h.01M797 211h.01M806 211h.01M879 211h.01M907 211h.01M944 211h.01M962 211h.01M1017 211h.01M1063 211h.01M92 220h.01M174 220h.01M183 220h.01M192 220h.01M211 220h.01M348 220h.01M357 220h.01M421 220h.01M431 220h.01M495 220h.01M540 220h.01M550 220h.01M559 220h.01M586 220h.01M623 220h.01M632 220h.01M641 220h.01M650 220h.01M705 220h.01M760 220h.01M788 220h.01M824 220h.01M916 220h.01M192 230h.01M302 230h.01M321 230h.01M330 230h.01M431 230h.01M458 230h.01M504 230h.01M550 230h.01M559 230h.01M595 230h.01M605 230h.01M614 230h.01M623 230h.01M632 230h.01M641 230h.01M650 230h.01M660 230h.01M669 230h.01M678 230h.01M687 230h.01M696 230h.01M705 230h.01M779 230h.01M788 230h.01M815 230h.01M843 230h.01M870 230h.01M55 239h.01M92 239h.01M110 239h.01M275 239h.01M311 239h.01M357 239h.01M485 239h.01M522 239h.01M531 239h.01M614 239h.01M623 239h.01M632 239h.01M678 239h.01M687 239h.01M696 239h.01M733 239h.01M788 239h.01M815 239h.01M834 239h.01M843 239h.01M889 239h.01M934 239h.01M944 239h.01M962 239h.01M1017 239h.01M220 248h.01M256 248h.01M266 248h.01M275 248h.01M403 248h.01M449 248h.01M458 248h.01M522 248h.01M531 248h.01M623 248h.01M632 248h.01M678 248h.01M687 248h.01M779 248h.01M788 248h.01M879 248h.01M889 248h.01M174 257h.01M256 257h.01M275 257h.01M376 257h.01M403 257h.01M431 257h.01M440 257h.01M449 257h.01M458 257h.01M467 257h.01M568 257h.01M614 257h.01M623 257h.01M632 257h.01M705 257h.01M742 257h.01M760 257h.01M779 257h.01M852 257h.01M861 257h.01M870 257h.01M898 257h.01M55 266h.01M92 266h.01M174 266h.01M202 266h.01M211 266h.01M302 266h.01M421 266h.01M431 266h.01M440 266h.01M449 266h.01M458 266h.01M540 266h.01M550 266h.01M559 266h.01M595 266h.01M605 266h.01M614 266h.01M678 266h.01M705 266h.01M769 266h.01M779 266h.01M843 266h.01M861 266h.01M879 266h.01M898 266h.01M944 266h.01M1017 266h.01M1090 266h.01M37 275h.01M46 275h.01M192 275h.01M202 275h.01M394 275h.01M495 275h.01M504 275h.01M513 275h.01M522 275h.01M550 275h.01M586 275h.01M678 275h.01M779 275h.01M916 275h.01M925 275h.01M934 275h.01M1017 275h.01M55 284h.01M92 284h.01M137 284h.01M147 284h.01M211 284h.01M247 284h.01M293 284h.01M559 284h.01M568 284h.01M632 284h.01M669 284h.01M678 284h.01M687 284h.01M769 284h.01M779 284h.01M879 284h.01M889 284h.01M907 284h.01M925 284h.01M934 284h.01M944 284h.01M348 294h.01M669 294h.01M687 294h.01M724 294h.01M769 294h.01M779 294h.01M788 294h.01M815 294h.01M843 294h.01M879 294h.01M92 303h.01M156 303h.01M165 303h.01M202 303h.01M275 303h.01M293 303h.01M476 303h.01M495 303h.01M614 303h.01M623 303h.01M632 303h.01M687 303h.01M724 303h.01M788 303h.01M815 303h.01M834 303h.01M870 303h.01M55 312h.01M92 312h.01M147 312h.01M156 312h.01M174 312h.01M321 312h.01M403 312h.01M412 312h.01M513 312h.01M577 312h.01M724 312h.01M834 312h.01M1017 312h.01M174 321h.01M192 321h.01M321 321h.01M357 321h.01M366 321h.01M376 321h.01M385 321h.01M431 321h.01M458 321h.01M467 321h.01M540 321h.01M550 321h.01M568 321h.01M577 321h.01M586 321h.01M641 321h.01M687 321h.01M724 321h.01M733 321h.01M742 321h.01M788 321h.01M797 321h.01M806 321h.01M870 321h.01M898 321h.01M46 330h.01M55 330h.01M92 330h.01M183 330h.01M256 330h.01M321 330h.01M330 330h.01M376 330h.01M385 330h.01M394 330h.01M540 330h.01M577 330h.01M623 330h.01M632 330h.01M641 330h.01M650 330h.01M660 330h.01M724 330h.01M733 330h.01M879 330h.01M889 330h.01M55 339h.01M92 339h.01M183 339h.01M256 339h.01M330 339h.01M403 339h.01M412 339h.01M467 339h.01M476 339h.01M504 339h.01M623 339h.01M632 339h.01M678 339h.01M687 339h.01M724 339h.01M733 339h.01M806 339h.01M870 339h.01M879 339h.01M889 339h.01M944 339h.01M174 349h.01M211 349h.01M247 349h.01M256 349h.01M275 349h.01M330 349h.01M376 349h.01M385 349h.01M421 349h.01M495 349h.01M568 349h.01M595 349h.01M623 349h.01M760 349h.01M779 349h.01M815 349h.01M824 349h.01M834 349h.01M907 349h.01M916 349h.01M1017 349h.01M9 358h.01M55 358h.01M92 358h.01M137 358h.01M156 358h.01M211 358h.01M321 358h.01M339 358h.01M403 358h.01M421 358h.01M623 358h.01M632 358h.01M660 358h.01M696 358h.01M724 358h.01M742 358h.01M760 358h.01M824 358h.01M834 358h.01M879 358h.01M1017 358h.01M1090 358h.01M37 367h.01M73 367h.01M110 367h.01M174 367h.01M192 367h.01M293 367h.01M431 367h.01M504 367h.01M513 367h.01M522 367h.01M531 367h.01M577 367h.01M742 367h.01M788 367h.01M834 367h.01M843 367h.01M852 367h.01M889 367h.01M944 367h.01M18 376h.01M73 376h.01M92 376h.01M110 376h.01M119 376h.01M293 376h.01M348 376h.01M394 376h.01M467 376h.01M495 376h.01M504 376h.01M513 376h.01M522 376h.01M540 376h.01M550 376h.01M559 376h.01M614 376h.01M779 376h.01M852 376h.01M861 376h.01M156 385h.01M376 385h.01M394 385h.01M605 385h.01M614 385h.01M696 385h.01M742 385h.01M751 385h.01M779 385h.01M852 385h.01M898 385h.01M944 385h.01M980 385h.01M1035 385h.01M1044 385h.01M1053 385h.01M1072 385h.01M1108 385h.01M1118 385h.01M1127 385h.01M1182 385h.01M174 394h.01M183 394h.01M220 394h.01M229 394h.01M247 394h.01M293 394h.01M321 394h.01M330 394h.01M357 394h.01M394 394h.01M669 394h.01M696 394h.01M751 394h.01M779 394h.01M788 394h.01M815 394h.01M137 404h.01M156 404h.01M165 404h.01M174 404h.01M183 404h.01M211 404h.01M321 404h.01M330 404h.01M385 404h.01M458 404h.01M568 404h.01M577 404h.01M632 404h.01M769 404h.01M788 404h.01M861 404h.01M889 404h.01M1017 404h.01M1118 404h.01M0 413h.01M9 413h.01M18 413h.01M266 413h.01M275 413h.01M284 413h.01M293 413h.01M440 413h.01M458 413h.01M504 413h.01M513 413h.01M568 413h.01M605 413h.01M669 413h.01M678 413h.01M724 413h.01M733 413h.01M742 413h.01M779 413h.01M898 413h.01M934 413h.01M64 422h.01M73 422h.01M82 422h.01M110 422h.01M183 422h.01M211 422h.01M229 422h.01M256 422h.01M293 422h.01M376 422h.01M522 422h.01M586 422h.01M678 422h.01M834 422h.01M889 422h.01M925 422h.01M1053 422h.01M1081 422h.01M1090 422h.01M1154 422h.01M27 431h.01M37 431h.01M46 431h.01M220 431h.01M302 431h.01M476 431h.01M595 431h.01M660 431h.01M824 431h.01M192 440h.01M202 440h.01M211 440h.01M293 440h.01M385 440h.01M394 440h.01M421 440h.01M449 440h.01M458 440h.01M485 440h.01M504 440h.01M696 440h.01M705 440h.01M715 440h.01M760 440h.01M1017 440h.01M174 449h.01M192 449h.01M211 449h.01M266 449h.01M275 449h.01M339 449h.01M385 449h.01M421 449h.01M431 449h.01M458 449h.01M678 449h.01M696 449h.01M705 449h.01M715 449h.01M742 449h.01M779 449h.01M834 449h.01M944 449h.01M174 459h.01M256 459h.01M385 459h.01M421 459h.01M476 459h.01M504 459h.01M531 459h.01M559 459h.01M577 459h.01M605 459h.01M715 459h.01M779 459h.01M824 459h.01M834 459h.01M907 459h.01M944 459h.01M1017 459h.01M1118 459h.01M174 468h.01M202 468h.01M211 468h.01M284 468h.01M311 468h.01M321 468h.01M385 468h.01M568 468h.01M605 468h.01M614 468h.01M623 468h.01M632 468h.01M669 468h.01M696 468h.01M779 468h.01M834 468h.01M861 468h.01M889 468h.01M916 468h.01M192 477h.01M247 477h.01M256 477h.01M275 477h.01M311 477h.01M394 477h.01M449 477h.01M458 477h.01M467 477h.01M550 477h.01M577 477h.01M605 477h.01M751 477h.01M769 477h.01M870 477h.01M879 477h.01M907 477h.01M916 477h.01M925 477h.01M174 486h.01M220 486h.01M247 486h.01M394 486h.01M440 486h.01M449 486h.01M476 486h.01M531 486h.01M586 486h.01M605 486h.01M733 486h.01M742 486h.01M751 486h.01M834 486h.01M907 486h.01M1118 486h.01M147 495h.01M238 495h.01M266 495h.01M321 495h.01M348 495h.01M394 495h.01M403 495h.01M412 495h.01M421 495h.01M431 495h.01M476 495h.01M485 495h.01M504 495h.01M568 495h.01M586 495h.01M595 495h.01M669 495h.01M687 495h.01M705 495h.01M779 495h.01M797 495h.01M815 495h.01M824 495h.01M834 495h.01M879 495h.01M137 504h.01M147 504h.01M156 504h.01M165 504h.01M238 504h.01M247 504h.01M366 504h.01M394 504h.01M421 504h.01M431 504h.01M504 504h.01M550 504h.01M687 504h.01M696 504h.01M788 504h.01M797 504h.01M806 504h.01M815 504h.01M824 504h.01M834 504h.01M1118 504h.01M202 513h.01M256 513h.01M275 513h.01M385 513h.01M421 513h.01M431 513h.01M440 513h.01M467 513h.01M522 513h.01M568 513h.01M605 513h.01M614 513h.01M861 513h.01M879 513h.01M110 523h.01M137 523h.01M275 523h.01M284 523h.01M293 523h.01M366 523h.01M376 523h.01M394 523h.01M421 523h.01M431 523h.01M504 523h.01M513 523h.01M623 523h.01M687 523h.01M696 523h.01M724 523h.01M733 523h.01M870 523h.01M898 523h.01M46 532h.01M137 532h.01M211 532h.01M321 532h.01M412 532h.01M467 532h.01M513 532h.01M687 532h.01M834 532h.01M879 532h.01M55 541h.01M183 541h.01M247 541h.01M256 541h.01M348 541h.01M357 541h.01M376 541h.01M394 541h.01M421 541h.01M458 541h.01M467 541h.01M485 541h.01M495 541h.01M522 541h.01M531 541h.01M577 541h.01M586 541h.01M614 541h.01M696 541h.01M788 541h.01M797 541h.01M852 541h.01M861 541h.01M870 541h.01M898 541h.01M907 541h.01M82 550h.01M202 550h.01M229 550h.01M238 550h.01M247 550h.01M256 550h.01M275 550h.01M284 550h.01M366 550h.01M403 550h.01M440 550h.01M449 550h.01M476 550h.01M504 550h.01M522 550h.01M531 550h.01M540 550h.01M550 550h.01M568 550h.01M595 550h.01M605 550h.01M614 550h.01M742 550h.01M760 550h.01M797 550h.01M815 550h.01M916 550h.01M220 559h.01M229 559h.01M256 559h.01M376 559h.01M403 559h.01M412 559h.01M440 559h.01M449 559h.01M559 559h.01M650 559h.01M705 559h.01M724 559h.01M733 559h.01M806 559h.01M843 559h.01M165 568h.01M174 568h.01M220 568h.01M229 568h.01M266 568h.01M275 568h.01M339 568h.01M403 568h.01M669 568h.01M715 568h.01M724 568h.01M733 568h.01M769 568h.01M824 568h.01M843 568h.01M861 568h.01M174 578h.01M192 578h.01M202 578h.01M211 578h.01M220 578h.01M229 578h.01M266 578h.01M284 578h.01M293 578h.01M339 578h.01M394 578h.01M678 578h.01M760 578h.01M916 578h.01M156 587h.01M165 587h.01M211 587h.01M330 587h.01M394 587h.01M403 587h.01M412 587h.01M440 587h.01M458 587h.01M467 587h.01M476 587h.01M485 587h.01M522 587h.01M531 587h.01M586 587h.01M797 587h.01M137 596h.01M156 596h.01M311 596h.01M348 596h.01M394 596h.01M403 596h.01M431 596h.01M476 596h.01M495 596h.01M522 596h.01M614 596h.01M687 596h.01M715 596h.01M843 596h.01M916 596h.01M0 605h.01M165 605h.01M192 605h.01M256 605h.01M357 605h.01M366 605h.01M403 605h.01M421 605h.01M431 605h.01M495 605h.01M504 605h.01M513 605h.01M522 605h.01M540 605h.01M577 605h.01M660 605h.01M678 605h.01M751 605h.01M760 605h.01M788 605h.01M861 605h.01M870 605h.01M898 605h.01M907 605h.01M73 614h.01M82 614h.01M183 614h.01M202 614h.01M229 614h.01M256 614h.01M266 614h.01M302 614h.01M376 614h.01M412 614h.01M504 614h.01M540 614h.01M595 614h.01M623 614h.01M696 614h.01M751 614h.01M815 614h.01M824 614h.01M870 614h.01M879 614h.01M889 614h.01M925 614h.01M156 623h.01M165 623h.01M174 623h.01M256 623h.01M293 623h.01M449 623h.01M458 623h.01M467 623h.01M476 623h.01M485 623h.01M531 623h.01M614 623h.01M641 623h.01M650 623h.01M742 623h.01M769 623h.01M843 623h.01M852 623h.01M879 623h.01M1063 623h.01M156 633h.01M183 633h.01M192 633h.01M202 633h.01M229 633h.01M385 633h.01M403 633h.01M458 633h.01M467 633h.01M476 633h.01M485 633h.01M495 633h.01M513 633h.01M605 633h.01M614 633h.01M669 633h.01M678 633h.01M742 633h.01M760 633h.01M806 633h.01M898 633h.01M925 633h.01M1044 633h.01M1063 633h.01M403 642h.01M467 642h.01M485 642h.01M559 642h.01M568 642h.01M788 642h.01M889 642h.01M174 651h.01M266 651h.01M284 651h.01M485 651h.01M559 651h.01M650 651h.01M678 651h.01M742 651h.01M751 651h.01M779 651h.01M788 651h.01M815 651h.01M879 651h.01M889 651h.01" stroke="currentColor" stroke-opacity="0.64" stroke-width="5.60" stroke-linecap="round" fill="none"/>
  <path d="M779 28h.01M934 28h.01M705 37h.01M788 46h.01M1145 46h.01M1191 46h.01M641 55h.01M650 55h.01M595 65h.01M733 65h.01M669 74h.01M678 74h.01M733 74h.01M742 74h.01M889 74h.01M1145 74h.01M1191 74h.01M605 83h.01M614 83h.01M678 83h.01M925 83h.01M614 92h.01M925 92h.01M861 101h.01M751 110h.01M192 120h.01M256 120h.01M266 120h.01M339 120h.01M485 120h.01M540 120h.01M183 138h.01M211 138h.01M247 138h.01M394 138h.01M403 138h.01M421 138h.01M165 147h.01M174 147h.01M247 147h.01M256 147h.01M266 147h.01M275 147h.01M385 147h.01M467 147h.01M485 147h.01M165 156h.01M211 156h.01M266 156h.01M275 156h.01M440 156h.01M449 156h.01M495 156h.01M870 156h.01M238 165h.01M247 165h.01M321 165h.01M376 165h.01M394 165h.01M870 165h.01M174 175h.01M385 175h.01M495 175h.01M504 175h.01M513 175h.01M861 175h.01M870 175h.01M376 184h.01M449 184h.01M861 184h.01M889 184h.01M165 193h.01M174 193h.01M403 193h.01M412 193h.01M495 193h.01M513 193h.01M531 193h.01M889 193h.01M293 202h.01M348 202h.01M366 202h.01M376 202h.01M385 202h.01M476 202h.01M485 202h.01M870 202h.01M907 202h.01M357 211h.01M376 211h.01M485 211h.01M495 211h.01M522 211h.01M889 211h.01M202 220h.01M394 220h.01M476 220h.01M504 220h.01M797 220h.01M815 220h.01M834 220h.01M889 220h.01M311 230h.01M403 230h.01M412 230h.01M513 230h.01M760 230h.01M769 230h.01M879 230h.01M192 239h.01M385 239h.01M403 239h.01M458 239h.01M495 239h.01M760 239h.01M165 248h.01M284 248h.01M366 248h.01M376 248h.01M504 248h.01M513 248h.01M202 257h.01M211 257h.01M421 257h.01M540 257h.01M843 257h.01M879 257h.01M183 266h.01M238 266h.01M284 266h.01M687 266h.01M715 266h.01M724 266h.01M788 266h.01M302 275h.01M412 275h.01M540 275h.01M605 275h.01M614 275h.01M669 275h.01M687 275h.01M751 275h.01M760 275h.01M806 275h.01M815 275h.01M824 275h.01M834 275h.01M879 275h.01M944 275h.01M165 284h.01M174 284h.01M202 284h.01M238 284h.01M376 284h.01M403 284h.01M412 284h.01M531 284h.01M540 284h.01M550 284h.01M577 284h.01M605 284h.01M696 284h.01M724 284h.01M760 284h.01M788 284h.01M852 284h.01M916 284h.01M137 294h.01M147 294h.01M202 294h.01M211 294h.01M266 294h.01M275 294h.01M321 294h.01M495 294h.01M531 294h.01M568 294h.01M641 294h.01M696 294h.01M751 294h.01M760 294h.01M797 294h.01M834 294h.01M870 294h.01M110 303h.01M137 303h.01M211 303h.01M220 303h.01M266 303h.01M311 303h.01M440 303h.01M449 303h.01M504 303h.01M513 303h.01M559 303h.01M577 303h.01M641 303h.01M650 303h.01M696 303h.01M715 303h.01M879 303h.01M898 303h.01M916 303h.01M266 312h.01M431 312h.01M440 312h.01M467 312h.01M495 312h.01M504 312h.01M632 312h.01M788 312h.01M879 312h.01M275 321h.01M293 321h.01M476 321h.01M504 321h.01M513 321h.01M522 321h.01M632 321h.01M696 321h.01M879 321h.01M156 330h.01M174 330h.01M266 330h.01M275 330h.01M366 330h.01M595 330h.01M687 330h.01M705 330h.01M715 330h.01M156 339h.01M165 339h.01M174 339h.01M357 339h.01M431 339h.01M495 339h.01M568 339h.01M614 339h.01M705 339h.01M797 339h.01M137 349h.01M165 349h.01M302 349h.01M311 349h.01M449 349h.01M550 349h.01M577 349h.01M605 349h.01M614 349h.01M669 349h.01M742 349h.01M797 349h.01M806 349h.01M147 358h.01M165 358h.01M174 358h.01M192 358h.01M202 358h.01M266 358h.01M275 358h.01M284 358h.01M302 358h.01M412 358h.01M467 358h.01M504 358h.01M687 358h.01M751 358h.01M870 358h.01M916 358h.01M944 358h.01M165 367h.01M211 367h.01M440 367h.01M449 367h.01M614 367h.01M669 367h.01M715 367h.01M733 367h.01M769 367h.01M779 367h.01M806 367h.01M815 367h.01M9 376h.01M46 376h.01M238 376h.01M321 376h.01M376 376h.01M385 376h.01M440 376h.01M568 376h.01M605 376h.01M687 376h.01M788 376h.01M797 376h.01M806 376h.01M843 376h.01M907 376h.01M916 376h.01M925 376h.01M238 385h.01M449 385h.01M458 385h.01M522 385h.01M769 385h.01M806 385h.01M824 385h.01M843 385h.01M1090 385h.01M238 394h.01M385 394h.01M449 394h.01M513 394h.01M522 394h.01M769 394h.01M147 404h.01M192 404h.01M256 404h.01M293 404h.01M421 404h.01M467 404h.01M504 404h.01M605 404h.01M614 404h.01M705 404h.01M797 404h.01M898 404h.01M82 413h.01M192 413h.01M256 413h.01M311 413h.01M348 413h.01M366 413h.01M421 413h.01M449 413h.01M559 413h.01M788 413h.01M806 413h.01M815 413h.01M0 422h.01M37 422h.01M55 422h.01M202 422h.01M220 422h.01M321 422h.01M366 422h.01M403 422h.01M412 422h.01M476 422h.01M595 422h.01M687 422h.01M742 422h.01M751 422h.01M779 422h.01M788 422h.01M1017 422h.01M1118 422h.01M192 431h.01M467 431h.01M485 431h.01M522 431h.01M568 431h.01M623 431h.01M696 431h.01M715 431h.01M751 431h.01M779 431h.01M815 431h.01M870 431h.01M879 431h.01M165 440h.01M183 440h.01M275 440h.01M577 440h.01M614 440h.01M669 440h.01M687 440h.01M742 440h.01M751 440h.01M769 440h.01M1118 440h.01M284 449h.01M394 449h.01M504 449h.01M531 449h.01M568 449h.01M605 449h.01M724 449h.01M879 449h.01M293 459h.01M412 459h.01M458 459h.01M467 459h.01M495 459h.01M522 459h.01M540 459h.01M550 459h.01M614 459h.01M660 459h.01M733 459h.01M742 459h.01M751 459h.01M843 459h.01M852 459h.01M861 459h.01M870 459h.01M898 459h.01M357 468h.01M458 468h.01M467 468h.01M476 468h.01M504 468h.01M641 468h.01M650 468h.01M705 468h.01M715 468h.01M879 468h.01M907 468h.01M174 477h.01M238 477h.01M266 477h.01M366 477h.01M385 477h.01M495 477h.01M522 477h.01M586 477h.01M641 477h.01M669 477h.01M678 477h.01M724 477h.01M760 477h.01M779 477h.01M815 477h.01M824 477h.01M843 477h.01M852 477h.01M202 486h.01M211 486h.01M229 486h.01M238 486h.01M266 486h.01M284 486h.01M293 486h.01M357 486h.01M376 486h.01M559 486h.01M577 486h.01M641 486h.01M650 486h.01M678 486h.01M724 486h.01M760 486h.01M779 486h.01M824 486h.01M843 486h.01M889 486h.01M284 495h.01M357 495h.01M366 495h.01M449 495h.01M650 495h.01M788 495h.01M889 495h.01M229 504h.01M440 504h.01M458 504h.01M513 504h.01M522 504h.01M559 504h.01M568 504h.01M623 504h.01M669 504h.01M678 504h.01M760 504h.01M879 504h.01M925 504h.01M64 513h.01M73 513h.01M92 513h.01M137 513h.01M192 513h.01M449 513h.01M843 513h.01M128 523h.01M165 523h.01M843 523h.01M907 523h.01M110 532h.01M192 532h.01M202 532h.01M266 532h.01M421 532h.01M476 532h.01M485 532h.01M669 532h.01M678 532h.01M889 532h.01M898 532h.01M907 532h.01M202 541h.01M366 541h.01M476 541h.01M504 541h.01M513 541h.01M540 541h.01M568 541h.01M605 541h.01M678 541h.01M92 550h.01M266 550h.01M376 550h.01M421 550h.01M495 550h.01M559 550h.01M577 550h.01M632 550h.01M678 550h.01M696 550h.01M715 550h.01M733 550h.01M806 550h.01M898 550h.01M293 559h.01M357 559h.01M421 559h.01M458 559h.01M476 559h.01M577 559h.01M641 559h.01M715 559h.01M769 559h.01M788 559h.01M852 559h.01M889 559h.01M925 559h.01M9 568h.01M293 568h.01M348 568h.01M376 568h.01M385 568h.01M449 568h.01M467 568h.01M476 568h.01M522 568h.01M586 568h.01M641 568h.01M660 568h.01M779 568h.01M788 568h.01M852 568h.01M156 578h.01M165 578h.01M275 578h.01M321 578h.01M431 578h.01M458 578h.01M485 578h.01M623 578h.01M650 578h.01M660 578h.01M669 578h.01M870 578h.01M925 578h.01M311 587h.01M449 587h.01M605 587h.01M614 587h.01M678 587h.01M696 587h.01M815 587h.01M879 587h.01M266 596h.01M275 596h.01M412 596h.01M531 596h.01M568 596h.01M595 596h.01M605 596h.01M641 596h.01M705 596h.01M779 596h.01M797 596h.01M824 596h.01M834 596h.01M879 596h.01M907 596h.01M925 596h.01M9 605h.01M156 605h.01M220 605h.01M229 605h.01M247 605h.01M266 605h.01M284 605h.01M302 605h.01M412 605h.01M531 605h.01M586 605h.01M614 605h.01M669 605h.01M705 605h.01M715 605h.01M742 605h.01M806 605h.01M815 605h.01M916 605h.01M92 614h.01M156 614h.01M192 614h.01M311 614h.01M440 614h.01M641 614h.01M650 614h.01M669 614h.01M779 614h.01M797 614h.01M183 623h.01M220 623h.01M366 623h.01M376 623h.01M504 623h.01M605 623h.01M669 623h.01M751 623h.01M779 623h.01M788 623h.01M806 623h.01M870 623h.01M165 633h.01M174 633h.01M211 633h.01M220 633h.01M504 633h.01M586 633h.01M751 633h.01M834 633h.01M852 633h.01M907 633h.01M916 633h.01M165 642h.01M293 642h.01M311 642h.01M357 642h.01M366 642h.01M476 642h.01M577 642h.01M605 642h.01M614 642h.01M660 642h.01M733 642h.01M760 642h.01M861 642h.01M925 642h.01M183 651h.01M220 651h.01M275 651h.01M311 651h.01M357 651h.01M376 651h.01M595 651h.01M660 651h.01M669 651h.01M733 651h.01M760 651h.01M769 651h.01M824 651h.01M898 651h.01M907 651h.01M916 651h.01M925 651h.01" stroke="currentColor" stroke-opacity="0.70" stroke-width="6.50" stroke-linecap="round" fill="none"/>
  <path d="M788 28h.01M715 37h.01M788 37h.01M788 55h.01M797 74h.01M687 83h.01M595 101h.01M760 101h.01M742 110h.01M550 120h.01M889 120h.01M485 129h.01M760 129h.01M202 138h.01M385 138h.01M412 138h.01M669 138h.01M202 147h.01M211 147h.01M284 147h.01M293 147h.01M394 147h.01M476 147h.01M156 156h.01M220 156h.01M394 156h.01M431 156h.01M458 156h.01M467 156h.01M476 156h.01M485 156h.01M504 156h.01M513 156h.01M522 156h.01M879 156h.01M889 156h.01M385 165h.01M458 165h.01M495 165h.01M504 165h.01M513 165h.01M879 165h.01M889 165h.01M183 175h.01M879 175h.01M889 175h.01M220 184h.01M366 184h.01M440 184h.01M522 184h.01M531 184h.01M870 184h.01M879 184h.01M898 184h.01M907 184h.01M284 193h.01M357 193h.01M366 193h.01M376 193h.01M385 193h.01M485 193h.01M522 193h.01M870 193h.01M879 193h.01M256 202h.01M284 202h.01M302 202h.01M311 202h.01M321 202h.01M357 202h.01M495 202h.01M522 202h.01M724 202h.01M788 202h.01M861 202h.01M879 202h.01M889 202h.01M898 202h.01M385 211h.01M467 211h.01M476 211h.01M504 211h.01M513 211h.01M934 211h.01M485 220h.01M513 220h.01M522 220h.01M870 220h.01M879 220h.01M357 230h.01M394 230h.01M421 230h.01M485 230h.01M522 230h.01M824 230h.01M834 230h.01M889 230h.01M284 239h.01M321 239h.01M412 239h.01M421 239h.01M504 239h.01M513 239h.01M824 239h.01M293 248h.01M412 248h.01M421 248h.01M183 257h.01M229 257h.01M238 257h.01M247 257h.01M284 257h.01M385 257h.01M412 257h.01M531 257h.01M751 257h.01M788 257h.01M834 257h.01M889 257h.01M229 266h.01M256 266h.01M293 266h.01M751 266h.01M760 266h.01M834 266h.01M889 266h.01M284 275h.01M311 275h.01M357 275h.01M366 275h.01M376 275h.01M385 275h.01M403 275h.01M485 275h.01M531 275h.01M632 275h.01M660 275h.01M696 275h.01M705 275h.01M715 275h.01M724 275h.01M788 275h.01M797 275h.01M889 275h.01M192 284h.01M229 284h.01M385 284h.01M586 284h.01M614 284h.01M623 284h.01M733 284h.01M742 284h.01M751 284h.01M797 284h.01M806 284h.01M815 284h.01M824 284h.01M834 284h.01M843 284h.01M192 294h.01M220 294h.01M293 294h.01M302 294h.01M311 294h.01M385 294h.01M485 294h.01M540 294h.01M550 294h.01M559 294h.01M650 294h.01M660 294h.01M824 294h.01M898 294h.01M907 294h.01M916 294h.01M147 303h.01M302 303h.01M485 303h.01M540 303h.01M550 303h.01M568 303h.01M907 303h.01M183 312h.01M275 312h.01M284 312h.01M476 312h.01M485 312h.01M568 312h.01M889 312h.01M183 321h.01M284 321h.01M485 321h.01M495 321h.01M889 321h.01M165 330h.01M293 330h.01M357 330h.01M495 330h.01M504 330h.01M513 330h.01M550 330h.01M559 330h.01M586 330h.01M898 330h.01M192 339h.01M202 339h.01M211 339h.01M577 339h.01M586 339h.01M595 339h.01M605 339h.01M715 339h.01M147 349h.01M192 349h.01M202 349h.01M284 349h.01M394 349h.01M403 349h.01M412 349h.01M458 349h.01M504 349h.01M513 349h.01M559 349h.01M586 349h.01M632 349h.01M660 349h.01M678 349h.01M687 349h.01M751 349h.01M769 349h.01M861 349h.01M311 358h.01M330 358h.01M385 358h.01M431 358h.01M440 358h.01M449 358h.01M513 358h.01M522 358h.01M568 358h.01M577 358h.01M586 358h.01M595 358h.01M605 358h.01M614 358h.01M669 358h.01M678 358h.01M705 358h.01M715 358h.01M769 358h.01M779 358h.01M788 358h.01M806 358h.01M815 358h.01M843 358h.01M852 358h.01M907 358h.01M202 367h.01M256 367h.01M339 367h.01M348 367h.01M559 367h.01M568 367h.01M595 367h.01M605 367h.01M678 367h.01M687 367h.01M696 367h.01M705 367h.01M797 367h.01M824 367h.01M898 367h.01M82 376h.01M229 376h.01M449 376h.01M458 376h.01M696 376h.01M815 376h.01M824 376h.01M834 376h.01M898 376h.01M229 385h.01M760 385h.01M815 385h.01M834 385h.01M1017 385h.01M458 394h.01M678 394h.01M687 394h.01M760 394h.01M898 394h.01M220 404h.01M513 404h.01M715 404h.01M760 404h.01M824 404h.01M55 413h.01M220 413h.01M321 413h.01M330 413h.01M339 413h.01M376 413h.01M385 413h.01M595 413h.01M797 413h.01M824 413h.01M9 422h.01M18 422h.01M46 422h.01M119 422h.01M192 422h.01M302 422h.01M311 422h.01M357 422h.01M485 422h.01M495 422h.01M559 422h.01M623 422h.01M632 422h.01M696 422h.01M724 422h.01M797 422h.01M806 422h.01M815 422h.01M824 422h.01M870 422h.01M879 422h.01M898 422h.01M174 431h.01M183 431h.01M284 431h.01M311 431h.01M321 431h.01M458 431h.01M559 431h.01M669 431h.01M678 431h.01M687 431h.01M705 431h.01M788 431h.01M797 431h.01M806 431h.01M898 431h.01M907 431h.01M916 431h.01M925 431h.01M934 431h.01M174 440h.01M284 440h.01M513 440h.01M522 440h.01M559 440h.01M568 440h.01M623 440h.01M678 440h.01M779 440h.01M788 440h.01M797 440h.01M870 440h.01M879 440h.01M889 440h.01M183 449h.01M220 449h.01M256 449h.01M403 449h.01M412 449h.01M513 449h.01M522 449h.01M540 449h.01M550 449h.01M577 449h.01M586 449h.01M595 449h.01M687 449h.01M733 449h.01M788 449h.01M824 449h.01M889 449h.01M934 449h.01M183 459h.01M266 459h.01M275 459h.01M284 459h.01M394 459h.01M403 459h.01M568 459h.01M724 459h.01M879 459h.01M889 459h.01M183 468h.01M256 468h.01M266 468h.01M275 468h.01M366 468h.01M376 468h.01M394 468h.01M485 468h.01M513 468h.01M660 468h.01M788 468h.01M843 468h.01M852 468h.01M870 468h.01M898 468h.01M183 477h.01M202 477h.01M211 477h.01M376 477h.01M504 477h.01M513 477h.01M595 477h.01M650 477h.01M660 477h.01M687 477h.01M788 477h.01M275 486h.01M366 486h.01M504 486h.01M513 486h.01M522 486h.01M568 486h.01M632 486h.01M660 486h.01M669 486h.01M788 486h.01M852 486h.01M192 495h.01M202 495h.01M211 495h.01M229 495h.01M256 495h.01M440 495h.01M513 495h.01M522 495h.01M559 495h.01M660 495h.01M925 495h.01M256 504h.01M449 504h.01M577 504h.01M586 504h.01M595 504h.01M870 504h.01M128 513h.01M266 513h.01M458 513h.01M495 513h.01M504 513h.01M513 513h.01M531 513h.01M852 513h.01M870 513h.01M357 523h.01M385 523h.01M467 523h.01M476 523h.01M485 523h.01M834 523h.01M119 532h.01M128 532h.01M256 532h.01M531 532h.01M595 532h.01M192 541h.01M550 541h.01M559 541h.01M595 541h.01M660 541h.01M669 541h.01M192 550h.01M385 550h.01M394 550h.01M431 550h.01M458 550h.01M467 550h.01M586 550h.01M669 550h.01M705 550h.01M907 550h.01M385 559h.01M394 559h.01M467 559h.01M586 559h.01M779 559h.01M797 559h.01M870 559h.01M879 559h.01M898 559h.01M907 559h.01M916 559h.01M0 568h.01M357 568h.01M366 568h.01M394 568h.01M421 568h.01M458 568h.01M485 568h.01M650 568h.01M870 568h.01M879 568h.01M889 568h.01M898 568h.01M907 568h.01M916 568h.01M925 568h.01M348 578h.01M357 578h.01M366 578h.01M376 578h.01M385 578h.01M879 578h.01M889 578h.01M321 587h.01M339 587h.01M348 587h.01M357 587h.01M366 587h.01M376 587h.01M385 587h.01M559 587h.01M687 587h.01M806 587h.01M889 587h.01M147 596h.01M321 596h.01M421 596h.01M440 596h.01M449 596h.01M577 596h.01M586 596h.01M650 596h.01M660 596h.01M669 596h.01M678 596h.01M696 596h.01M788 596h.01M889 596h.01M898 596h.01M82 605h.01M238 605h.01M275 605h.01M311 605h.01M440 605h.01M449 605h.01M595 605h.01M605 605h.01M632 605h.01M641 605h.01M650 605h.01M696 605h.01M724 605h.01M733 605h.01M797 605h.01M824 605h.01M834 605h.01M925 605h.01M220 614h.01M321 614h.01M357 614h.01M366 614h.01M449 614h.01M458 614h.01M485 614h.01M495 614h.01M724 614h.01M788 614h.01M192 623h.01M357 623h.01M385 623h.01M495 623h.01M595 623h.01M797 623h.01M394 633h.01M568 633h.01M577 633h.01M595 633h.01M623 633h.01M797 633h.01M843 633h.01M174 642h.01M183 642h.01M302 642h.01M394 642h.01M495 642h.01M586 642h.01M595 642h.01M907 642h.01M916 642h.01M293 651h.01M302 651h.01M366 651h.01M467 651h.01M476 651h.01M586 651h.01M724 651h.01" stroke="currentColor" stroke-opacity="0.76" stroke-width="7.40" stroke-linecap="round" fill="none"/>
</svg>
